<svg xmlns="http://www.w3.org/2000/svg" width="24.067" height="26.524" viewBox="0 0 24.067 26.524"><path data-name="clip002 - E0D9" d="M7.076 20.502l11.745-11.72a2.49 2.49 0 0 0 .726-1.772 2.491 2.491 0 0 0-2.494-2.49 2.513 2.513 0 0 0-1.768.726l-13.1 13.1a4.569 4.569 0 0 0-1.308 3.2 4.485 4.485 0 0 0 4.48 4.48 4.389 4.389 0 0 0 3.172-1.308l13.1-13.1a6.427 6.427 0 0 0 1.938-4.628A6.511 6.511 0 0 0 17.053.5a6.489 6.489 0 0 0-4.6 1.913L.707 14.134l.339.339L12.791 2.752A6.011 6.011 0 0 1 17.053.984a6.025 6.025 0 0 1 6.03 6.006 6.032 6.032 0 0 1-1.792 4.286l-13.1 13.1a3.993 3.993 0 0 1-2.833 1.162 3.984 3.984 0 0 1-4-4 4.092 4.092 0 0 1 1.162-2.857l13.1-13.1A2.036 2.036 0 0 1 17.049 5a2 2 0 0 1 2.018 2.01 2.056 2.056 0 0 1-.581 1.429L6.737 20.163z" stroke="#000"/></svg>