<svg data-name="Group 269" xmlns="http://www.w3.org/2000/svg" width="50.359" height="65.145" viewBox="0 0 50.359 65.145"><path data-name="Path 3251" d="M35.812 5.285V.954A.954.954 0 0 0 34.857 0h-6.629a.954.954 0 0 0-.954.954v2.007c-.7-.059-1.4-.091-2.1-.091C11.29 2.87-.005 14.481-.005 28.753A26.256 26.256 0 0 0 2.41 39.827c3.922 8.506 21.381 24.4 22.123 25.077.514.466 1.074.179 1.525-.212.542-.469 9.638-9.233 11.851-11.516.47-.485 1.151-1.1.615-1.8a.958.958 0 0 0-1.447-.11c-4.6 4.89-10.059 9.952-11.9 11.64C21.955 59.917 7.5 46.3 4.148 39.028a24.364 24.364 0 0 1-2.239-10.275c0-13.22 10.439-23.974 23.27-23.974.7 0 1.4.032 2.1.1v2.153h-2.173a.954.954 0 0 0-.954.954v2.338a17.628 17.628 0 0 0-7.041 1.9.955.955 0 0 0 .866 1.7 15.731 15.731 0 0 1 6.175-1.693v13.723H21.57v-8.18a.955.955 0 0 0-1.909 0v8.18h-2v-4.1a.955.955 0 0 0-1.909 0v4.1h-3.374a.954.954 0 0 0-.954.954v10.966a17.089 17.089 0 0 1 3.064-21.55.955.955 0 0 0-1.275-1.42 18.871 18.871 0 0 0-6.212 14.042A18.443 18.443 0 0 0 25.029 47.6h.151a18.439 18.439 0 0 0 18.175-18.652 18.945 18.945 0 0 0-4.351-12.109.969.969 0 0 0-.069-.075V9.409a24.5 24.5 0 0 1 7.276 29.619 42.811 42.811 0 0 1-6.354 9.21.955.955 0 0 0 1.441 1.252 44.077 44.077 0 0 0 6.646-9.663 26.255 26.255 0 0 0 2.415-11.074A25.95 25.95 0 0 0 35.812 5.285zm-6.629-3.376h4.72v3.862a.952.952 0 0 0 0 .23v1.031h-4.72zM13.298 40.37a.951.951 0 0 0 .034-.25V27.862h10.781v17.79a16.049 16.049 0 0 1-10.815-5.282zm12.762 5.295V8.941h10.965v31.342a.944.944 0 0 0 .008.116 16.041 16.041 0 0 1-10.973 5.266zm15.385-16.719a17 17 0 0 1-2.511 8.927V20.009a17.111 17.111 0 0 1 2.511 8.937z"/><path data-name="Path 3252" d="M33.417 14.061h-3.749a.955.955 0 0 0 0 1.909h3.749a.955.955 0 0 0 0-1.909z"/><path data-name="Path 3253" d="M33.417 21.484h-3.749a.955.955 0 0 0 0 1.909h3.749a.955.955 0 0 0 0-1.909z"/><path data-name="Path 3254" d="M33.417 28.907h-3.749a.955.955 0 0 0 0 1.909h3.749a.955.955 0 0 0 0-1.909z"/><path data-name="Path 3255" d="M33.417 36.33h-3.749a.955.955 0 0 0 0 1.909h3.749a.955.955 0 0 0 0-1.909z"/><path data-name="Path 3256" d="M16.56 30.81a.954.954 0 0 0-.954.954v1.957a.954.954 0 1 0 1.909 0v-1.956a.954.954 0 0 0-.955-.955z"/><path data-name="Path 3257" d="M16.56 37.698a.954.954 0 0 0-.954.954v1.957a.954.954 0 1 0 1.909 0v-1.957a.954.954 0 0 0-.955-.954z"/><path data-name="Path 3258" d="M20.759 30.81a.954.954 0 0 0-.954.954v1.957a.954.954 0 1 0 1.909 0v-1.956a.954.954 0 0 0-.955-.955z"/><path data-name="Path 3259" d="M20.759 37.698a.954.954 0 0 0-.954.954v1.957a.954.954 0 1 0 1.909 0v-1.957a.954.954 0 0 0-.955-.954z"/></svg>