<svg data-name="Group 272" xmlns="http://www.w3.org/2000/svg" width="44.277" height="64.779" viewBox="0 0 44.277 64.779"><path data-name="Path 3264" d="M8.753 22.469L.296 11.129a1.494 1.494 0 0 1 1.2-2.387h36.41v-1.9a3.583 3.583 0 1 1 2.987 0v54.949h1.89a1.494 1.494 0 0 1 0 2.987H36.01a1.494 1.494 0 0 1 0-2.987h1.893V36.14H1.548a1.494 1.494 0 0 1-1.2-2.386zM39.397 4.477a.894.894 0 1 0-.894-.894.9.9 0 0 0 .894.894zm-1.494 28.676v-4.961h-4.76a1.494 1.494 0 0 1 0-2.987h4.76v-5.526h-7.448a1.494 1.494 0 0 1 0-2.987h7.448V11.73H4.471l7.342 9.846a1.494 1.494 0 0 1 0 1.785l-7.291 9.792h33.381z"/></svg>