<svg data-name="Group 271" xmlns="http://www.w3.org/2000/svg" width="75.832" height="58.059" viewBox="0 0 75.832 58.059"><g data-name="Group 270"><path data-name="Path 3260" d="M75.4 31.242L63.008 18.82a1.482 1.482 0 0 0-1.049-.436h-8.64v-16.9A1.481 1.481 0 0 0 51.838 0H1.481A1.481 1.481 0 0 0 0 1.481v18.788a1.481 1.481 0 1 0 2.962 0V9.087a6.5 6.5 0 0 0 8.59-1.327 6.508 6.508 0 0 0 10.072 0 6.508 6.508 0 0 0 10.072 0 6.508 6.508 0 0 0 10.071 0 6.5 6.5 0 0 0 8.59 1.327V46.8H32.082a7.4 7.4 0 0 0-12.247-.587 7.4 7.4 0 0 0-12.247.587H2.962V32.118a1.481 1.481 0 1 0-2.962 0v16.166a1.481 1.481 0 0 0 1.481 1.481H6.56a7.536 7.536 0 0 0-.055.889A7.368 7.368 0 0 0 7.99 55.1H1.481a1.481 1.481 0 1 0 0 2.962h24.278a7.39 7.39 0 0 0 7.35-8.294h22.635a7.536 7.536 0 0 0-.055.889 7.367 7.367 0 0 0 1.485 4.443H43.989a1.481 1.481 0 1 0 0 2.962h19.106a7.39 7.39 0 0 0 7.35-8.294h3.906a1.481 1.481 0 0 0 1.481-1.481v-16a1.479 1.479 0 0 0-.432-1.045zM9.467 50.654A4.443 4.443 0 1 1 13.91 55.1a4.449 4.449 0 0 1-4.443-4.446zm10.368 4.438v.005h-.008zm5.925.005a4.443 4.443 0 1 1 4.443-4.443 4.448 4.448 0 0 1-4.444 4.446zM72.87 32.9v3.238H61.91a1.483 1.483 0 0 1-1.481-1.481v-13.31h.916zM6.517 7.183a3.558 3.558 0 0 1-3.554-3.554v-.667h7.11v.667a3.559 3.559 0 0 1-3.556 3.554zm10.072 0a3.558 3.558 0 0 1-3.554-3.554v-.667h7.109v.667a3.558 3.558 0 0 1-3.556 3.554zm10.072 0a3.558 3.558 0 0 1-3.554-3.554v-.667h7.109v.667a3.558 3.558 0 0 1-3.556 3.554zm10.071 0a3.558 3.558 0 0 1-3.554-3.554v-.667h7.11v.667a3.559 3.559 0 0 1-3.557 3.554zm10.072 0a3.558 3.558 0 0 1-3.554-3.554v-.667h7.109v.667A3.558 3.558 0 0 1 46.8 7.183zM63.095 55.1a4.443 4.443 0 1 1 4.443-4.443 4.448 4.448 0 0 1-4.443 4.443zm6.323-8.294a7.4 7.4 0 0 0-12.646 0h-3.453V21.347h4.148v13.311A4.448 4.448 0 0 0 61.91 39.1h10.96v7.7z"/><path data-name="Path 3261" d="M37.768 55.097a1.481 1.481 0 1 0 1.047.434 1.493 1.493 0 0 0-1.047-.434z"/><path data-name="Path 3262" d="M26.66 12.891a1.481 1.481 0 0 0-1.481 1.481v1.108a15.525 15.525 0 0 0-14.017 15.027 1.48 1.48 0 0 0-1.387 1.476 7.414 7.414 0 0 0 7.405 7.405h18.958a7.414 7.414 0 0 0 7.405-7.405 1.48 1.48 0 0 0-1.387-1.476A15.525 15.525 0 0 0 28.14 15.48v-1.108a1.481 1.481 0 0 0-1.48-1.481zm9.479 23.535H17.18a4.45 4.45 0 0 1-4.189-2.963h27.337a4.45 4.45 0 0 1-4.19 2.963zm3.054-5.925H14.126a12.54 12.54 0 0 1 25.066 0z"/><path data-name="Path 3263" d="M1.481 27.677a1.481 1.481 0 1 0-1.047-2.53 1.481 1.481 0 0 0 1.047 2.53z"/></g></svg>