<svg data-name="Group 268" xmlns="http://www.w3.org/2000/svg" width="59.232" height="64.482" viewBox="0 0 59.232 64.482"><g data-name="Group 267"><g data-name="Group 266"><ellipse data-name="Ellipse 24" cx="1.346" cy="1.346" rx="1.346" ry="1.346" transform="translate(28.27 27.889)"/><ellipse data-name="Ellipse 25" cx="1.346" cy="1.346" rx="1.346" ry="1.346" transform="translate(28.27 32.42)"/><path data-name="Path 3250" d="M50.719 14.145a6.325 6.325 0 0 0 1.176-3.678V6.361A6.368 6.368 0 0 0 45.535 0h-.879a6.368 6.368 0 0 0-6.361 6.361v4.106a6.327 6.327 0 0 0 1.169 3.668h-4.219a6.327 6.327 0 0 0 1.169-3.668V6.361A6.368 6.368 0 0 0 30.056 0h-.875a6.368 6.368 0 0 0-6.361 6.361v4.106a6.324 6.324 0 0 0 1.169 3.668h-4.225a6.327 6.327 0 0 0 1.169-3.668V6.361A6.368 6.368 0 0 0 14.573 0h-.875a6.368 6.368 0 0 0-6.361 6.361v4.106a6.326 6.326 0 0 0 1.176 3.678A8.878 8.878 0 0 0 0 22.986v13.125a4.962 4.962 0 0 0 4.966 4.947h.082v18.94a4.492 4.492 0 0 0 4.487 4.487h1.458a4.473 4.473 0 0 0 3.142-1.285 4.474 4.474 0 0 0 3.141 1.286h1.458a4.47 4.47 0 0 0 3.14-1.288 4.472 4.472 0 0 0 3.143 1.288h1.458a4.473 4.473 0 0 0 3.14-1.286 4.474 4.474 0 0 0 3.141 1.282h1.458a4.472 4.472 0 0 0 3.142-1.288 4.468 4.468 0 0 0 3.14 1.288h1.46a4.473 4.473 0 0 0 3.14-1.282 4.475 4.475 0 0 0 3.141 1.286h1.459a4.492 4.492 0 0 0 4.487-4.487V41.055h.082a4.962 4.962 0 0 0 4.966-4.947V22.986a8.878 8.878 0 0 0-8.512-8.841zm-9.727-7.784a3.672 3.672 0 0 1 3.664-3.669h.875a3.672 3.672 0 0 1 3.668 3.668v4.106a3.672 3.672 0 0 1-3.668 3.668h-.875a3.672 3.672 0 0 1-3.668-3.668zm-15.481 0a3.672 3.672 0 0 1 3.668-3.668h.877a3.673 3.673 0 0 1 3.668 3.668v4.106a3.673 3.673 0 0 1-3.668 3.668h-.875a3.672 3.672 0 0 1-3.668-3.668V6.361zm7.219 10.467l-3.114 5.108-3.114-5.109zM10.029 6.361a3.672 3.672 0 0 1 3.668-3.668h.875a3.672 3.672 0 0 1 3.668 3.668v4.106a3.672 3.672 0 0 1-3.668 3.668h-.875a3.672 3.672 0 0 1-3.668-3.668zM6.394 26.183a1.346 1.346 0 0 0-1.346 1.346V38.37h-.082a2.267 2.267 0 0 1-2.274-2.255V22.986a6.186 6.186 0 0 1 6.2-6.159h9.1a8.8 8.8 0 0 0-2.513 6.159v13.125a4.927 4.927 0 0 0 .164 1.261l-1.508.764-6.4-3.254V27.53a1.346 1.346 0 0 0-1.341-1.347zm14.135 33.812a1.8 1.8 0 0 1-1.795 1.8h-1.458a1.8 1.8 0 0 1-1.795-1.8V45.2a1.346 1.346 0 0 0-2.692 0V60a1.8 1.8 0 0 1-1.795 1.8H9.535A1.8 1.8 0 0 1 7.74 60V37.9l5.785 2.943a1.345 1.345 0 0 0 1.218 0l2.281-1.155a4.957 4.957 0 0 0 3.422 1.367h.082v18.94zm15.481 0a1.8 1.8 0 0 1-1.8 1.8h-1.454a1.8 1.8 0 0 1-1.795-1.8V45.2a1.346 1.346 0 0 0-2.692 0V60a1.8 1.8 0 0 1-1.795 1.8h-1.457a1.8 1.8 0 0 1-1.795-1.8V37.917l5.785 2.929a1.346 1.346 0 0 0 1.219 0L36.01 37.9v22.095zm1.346-33.812a1.346 1.346 0 0 0-1.346 1.346v7.352l-6.4 3.254-6.388-3.235v-7.37a1.346 1.346 0 0 0-2.692 0v10.84h-.082a2.267 2.267 0 0 1-2.274-2.255V22.986a6.18 6.18 0 0 1 5.222-6.086l5.07 8.319a1.346 1.346 0 0 0 2.3 0l5.07-8.319a6.18 6.18 0 0 1 5.22 6.086v13.125a2.267 2.267 0 0 1-2.274 2.255H38.7V27.53a1.346 1.346 0 0 0-1.344-1.347zm14.135 33.812a1.8 1.8 0 0 1-1.795 1.8h-1.458a1.8 1.8 0 0 1-1.795-1.8V45.2a1.346 1.346 0 0 0-2.692 0V60a1.8 1.8 0 0 1-1.795 1.8h-1.459a1.8 1.8 0 0 1-1.795-1.8V41.055h.082a4.957 4.957 0 0 0 3.422-1.367l2.281 1.155a1.347 1.347 0 0 0 1.218 0l5.786-2.943v22.095zm2.775-21.629h-.082V27.53a1.346 1.346 0 1 0-2.692 0v7.352l-6.4 3.254-1.508-.764a4.91 4.91 0 0 0 .164-1.261V22.986a8.8 8.8 0 0 0-2.513-6.159h9.1a6.186 6.186 0 0 1 6.2 6.159v13.125a2.267 2.267 0 0 1-2.269 2.255z"/></g></g></svg>