<svg xmlns="http://www.w3.org/2000/svg" width="24.066" height="26.523" viewBox="0 0 24.066 26.523"><path stroke="#DE3032" d="M7.076 20.502L18.82 8.782c.469-.471.73-1.108.727-1.772a2.491 2.491 0 0 0-2.492-2.49h-.002c-.662 0-1.297.261-1.768.727l-13.101 13.1a4.57 4.57 0 0 0-1.308 3.2 4.483 4.483 0 0 0 4.479 4.479 4.384 4.384 0 0 0 3.172-1.308l13.101-13.1a6.433 6.433 0 0 0 1.938-4.628A6.51 6.51 0 0 0 17.052.5a6.485 6.485 0 0 0-4.6 1.913L.707 14.134l.339.339L12.791 2.752A6.026 6.026 0 0 1 23.083 6.99a6.028 6.028 0 0 1-1.792 4.285l-13.1 13.101a3.995 3.995 0 0 1-2.833 1.162 3.984 3.984 0 0 1-4-3.968v-.032c0-1.067.417-2.093 1.162-2.857l13.101-13.1c.38-.374.894-.583 1.428-.581a2 2 0 0 1 2.018 1.981v.028a2.055 2.055 0 0 1-.581 1.429L6.737 20.163l.339.339z"/></svg>