<svg xmlns="http://www.w3.org/2000/svg" width="63.645" height="70.762" viewBox="0 0 63.645 70.762"><g data-name="Group 1629" stroke="#000" stroke-width=".5"><path data-name="Path 3283" d="M53.245 20.092h-24.14a1.026 1.026 0 0 0 0 2.052h12.229v5.337H22.388v-5.335H24.5a1.026 1.026 0 0 0 0-2.052h-2.454a1.712 1.712 0 0 0-1.711 1.71v6.021a1.712 1.712 0 0 0 1.711 1.71h31.2a1.712 1.712 0 0 0 1.711-1.71v-6.023a1.712 1.712 0 0 0-1.712-1.71zm-.342 7.389h-9.516v-5.335h9.516z"/><path data-name="Path 3284" d="M25.691 56.151a1.026 1.026 0 0 0-1.027-1.027h-3.3a1.026 1.026 0 1 0 0 2.053h3.3a1.026 1.026 0 0 0 1.027-1.026z"/><path data-name="Path 3285" d="M28.211 55.124a1.026 1.026 0 0 0 0 2.053h2.336a1.026 1.026 0 1 0 0-2.053z"/><path data-name="Path 3286" d="M38.205 55.124h-4.4a1.026 1.026 0 1 0 0 2.053h4.4a1.026 1.026 0 1 0 0-2.053z"/><path data-name="Path 3287" d="M23.407 59.364h-2.045a1.026 1.026 0 1 0 0 2.052h2.045a1.026 1.026 0 0 0 0-2.052z"/><path data-name="Path 3288" d="M32.512 59.364h-6.111a1.026 1.026 0 1 0 0 2.052h6.111a1.026 1.026 0 1 0 0-2.052z"/><path data-name="Path 3289" d="M38.202 59.364h-2.2a1.026 1.026 0 0 0 0 2.052h2.2a1.026 1.026 0 1 0 0-2.052z"/><path data-name="Path 3290" d="M21.362 48.417h5.1a1.026 1.026 0 1 0 0-2.053h-5.1a1.026 1.026 0 1 0 0 2.053z"/><path data-name="Path 3291" d="M21.362 52.387h10.48a1.026 1.026 0 1 0 0-2.053h-10.48a1.026 1.026 0 1 0 0 2.053z"/><path data-name="Path 3292" d="M51.902 53.691c-1.63 0-2.527.817-2.527 2.3v2.35c0 1.483.9 2.3 2.527 2.3s2.51-.817 2.51-2.3v-2.35c0-1.483-.891-2.3-2.51-2.3zm.72 4.654c0 .458-.229.672-.72.672s-.7-.214-.7-.672v-2.354c0-.458.224-.671.7-.671s.72.214.72.671z"/><path data-name="Path 3293" d="M52.142 48.604a1.007 1.007 0 0 0-1.017-.935.835.835 0 0 0-.769.455l-5.844 11.835-.007.014a.9.9 0 0 0 .889 1.272.867.867 0 0 0 .817-.471l5.844-11.785a.838.838 0 0 0 .087-.385z"/><path data-name="Path 3294" d="M47.091 52.971v-2.357c0-1.483-.892-2.3-2.511-2.3s-2.527.817-2.527 2.3v2.354c0 1.483.9 2.3 2.527 2.3s2.511-.814 2.511-2.297zm-3.214 0v-2.357c0-.458.223-.671.7-.671s.72.213.72.671v2.354c0 .458-.229.671-.72.671s-.7-.209-.7-.668z"/><path data-name="Path 3295" d="M53.245 31.586h-31.2a1.713 1.713 0 0 0-1.711 1.711v6.021a1.713 1.713 0 0 0 1.711 1.711h31.2a1.713 1.713 0 0 0 1.711-1.711v-6.021a1.713 1.713 0 0 0-1.711-1.711zm-19.341 7.389H22.388v-5.337h11.516zm19 0H35.956v-5.337h16.946z"/><path data-name="Path 3296" d="M62.132 14.719L47.622 1.296A3.921 3.921 0 0 0 44.95.25H1.961A1.712 1.712 0 0 0 .25 1.961v40.458a1.026 1.026 0 0 0 2.053 0V2.303h9.593V68.46H2.303V47.117a1.026 1.026 0 1 0-2.053 0v21.685a1.712 1.712 0 0 0 1.711 1.711h57.5a3.937 3.937 0 0 0 3.933-3.933V17.606a3.943 3.943 0 0 0-1.262-2.887zM47.999 4.45l10.727 9.95h-9.188a1.541 1.541 0 0 1-1.539-1.539zm13.343 62.13a1.882 1.882 0 0 1-1.88 1.88H13.95V2.303h31a1.878 1.878 0 0 1 1 .285V12.86a3.6 3.6 0 0 0 3.588 3.59h11.4a1.886 1.886 0 0 1 .4 1.155z"/><path data-name="Path 3297" d="M7.098 23.629a3.531 3.531 0 1 0-3.53-3.531 3.535 3.535 0 0 0 3.53 3.531zm0-5.008a1.478 1.478 0 1 1-1.478 1.478 1.48 1.48 0 0 1 1.478-1.478z"/><path data-name="Path 3298" d="M7.098 39.016a3.531 3.531 0 1 0-3.53-3.53 3.534 3.534 0 0 0 3.53 3.53zm0-5.008a1.478 1.478 0 1 1-1.478 1.478 1.48 1.48 0 0 1 1.478-1.478z"/><path data-name="Path 3299" d="M7.098 54.404a3.53 3.53 0 1 0-3.53-3.53 3.534 3.534 0 0 0 3.53 3.53zm0-5.008a1.478 1.478 0 1 1-1.478 1.48 1.48 1.48 0 0 1 1.478-1.481z"/></g></svg>