<svg xmlns="http://www.w3.org/2000/svg" width="25.576" height="25.556" viewBox="0 0 25.576 25.556"><g data-name="Group 281" fill="none" stroke="#fff" stroke-miterlimit="10" stroke-width="1.5"><path data-name="Path 3265" d="M18.965 16.696a1.679 1.679 0 0 0-2.538 0c-.593.589-1.187 1.177-1.77 1.775a.35.35 0 0 1-.489.09c-.384-.21-.792-.379-1.161-.608a18.381 18.381 0 0 1-4.438-4.039 10.537 10.537 0 0 1-1.591-2.548.367.367 0 0 1 .09-.469c.594-.573 1.172-1.161 1.755-1.75a1.684 1.684 0 0 0 0-2.6c-.463-.469-.927-.928-1.391-1.4s-.952-.963-1.436-1.436a1.69 1.69 0 0 0-2.538.005c-.6.588-1.171 1.191-1.779 1.77a2.886 2.886 0 0 0-.908 1.949 8.252 8.252 0 0 0 .638 3.555 21.586 21.586 0 0 0 3.835 6.387 23.718 23.718 0 0 0 7.857 6.148 11.35 11.35 0 0 0 4.353 1.266 3.188 3.188 0 0 0 2.737-1.042c.509-.568 1.082-1.087 1.621-1.63a1.7 1.7 0 0 0 .01-2.583q-1.422-1.428-2.852-2.847zm0 0"/><path data-name="Path 3266" d="M18.013 12.722l1.839-.314a8.259 8.259 0 0 0-6.985-6.776l-.259 1.85a6.383 6.383 0 0 1 5.4 5.24zm0 0"/><path data-name="Path 3267" d="M20.889 4.725A13.566 13.566 0 0 0 13.111.846l-.259 1.849a11.839 11.839 0 0 1 10.017 9.708l1.84-.314a13.663 13.663 0 0 0-3.82-7.364zm0 0"/></g></svg>