<svg xmlns="http://www.w3.org/2000/svg" width="13.34" height="23" viewBox="0 0 13.34 23"><g data-name="Group 1790" transform="translate(-1264 -3449)" fill="#006834"><path d="M1275.521 3460.174a.937.937 0 0 1 1.338 0 .961.961 0 0 1 0 1.338l-5.606 5.607a.97.97 0 0 1-1.365 0l-5.607-5.607a.946.946 0 1 1 1.338-1.338l4 4.015v-14.252a.941.941 0 0 1 .955-.937.931.931 0 0 1 .937.937v14.251z"/><rect data-name="Rectangle 314" width="13.34" height="2.3" rx="1.15" transform="translate(1264 3469.7)"/></g></svg>