<svg xmlns="http://www.w3.org/2000/svg" width="26" height="26.158" viewBox="0 0 26 26.158"><path data-name="support (2)" d="M5.579 9.632H4.316a.055.055 0 0 0-.053.053v3.527a.055.055 0 0 0 .053.052h1.263zm14.842-1.579h1.263a1.634 1.634 0 0 1 1.632 1.632v3.526a1.634 1.634 0 0 1-1.632 1.632h-2.182a9.775 9.775 0 0 1-2.555 2.647 2.214 2.214 0 0 0 2.21 2.3c3.777 0 6.842 1 6.842 5.579a.79.79 0 1 1-1.579 0c0-3.676-2.437-4-5.263-4a3.764 3.764 0 0 1-1.74-.424l-4.215 3.053a.789.789 0 0 1-.938.009l-4.018-2.908a3.762 3.762 0 0 1-1.4.27c-2.826 0-5.263.324-5.263 4a.79.79 0 0 1-.789.79.79.79 0 0 1-.79-.79c0-4.583 3.066-5.579 6.842-5.579a2.217 2.217 0 0 0 2.2-2.046 9 9 0 0 1-2.856-2.9H4.316a1.634 1.634 0 0 1-1.632-1.633V9.685a1.634 1.634 0 0 1 1.632-1.632h1.263V6.927A6.907 6.907 0 0 1 12.432 0h1.134a6.908 6.908 0 0 1 6.854 6.926zm-1.579 5.211V8.147a7.929 7.929 0 0 1-5.977-1.677 7.92 7.92 0 0 1-5.707 1.706v4.988a6.1 6.1 0 0 0 2.136 2.817 7.1 7.1 0 0 0 3.608 1.639 7.493 7.493 0 0 0 3.9-2.025 8.507 8.507 0 0 0 .742-.749h-2.442a1.316 1.316 0 1 1 0-1.579zm2.842-3.632h-1.263v3.632h1.263a.055.055 0 0 0 .053-.053V9.685a.055.055 0 0 0-.053-.053zm-2.855-3.075a5.361 5.361 0 0 0-3.18-4.544 7.859 7.859 0 0 1-1.647 3.345 6.375 6.375 0 0 0 4.827 1.199zm-4.7-4.948a5.249 5.249 0 0 0-.558-.03h-1.139a5.313 5.313 0 0 0-5.264 5.015 6.369 6.369 0 0 0 6.957-4.985zm-4.5 18.54l3.1 2.246 3.442-2.492a3.782 3.782 0 0 1-.709-1.5 6.289 6.289 0 0 1-2.56.792 6.3 6.3 0 0 1-2.4-.646 3.792 3.792 0 0 1-.879 1.6zm0 0" fill="#fff" fill-rule="evenodd"/></svg>