<svg xmlns="http://www.w3.org/2000/svg" width="31.486" height="28" viewBox="0 0 31.486 28"><path fill="#EFBA30" d="M0 3.244a3.23 3.23 0 0 1 .264-1.307c.175-.395.438-.745.77-1.023A3.774 3.774 0 0 1 2.243.245 4.848 4.848 0 0 1 3.837.001c.452-.008.9.075 1.319.244.375.157.716.387 1 .678.283.293.504.641.647 1.023.157.417.245.855.26 1.3a3.153 3.153 0 0 1-.947 2.322 3.552 3.552 0 0 1-2.595.945h-.034A3.455 3.455 0 0 1 .93 5.568 3.178 3.178 0 0 1 0 3.244zM.414 28V9.092h6.73V28H.414zm10.467 0c.014-1.614.024-3.149.031-4.605.008-1.457.011-2.854.009-4.189V12.79c0-.945-.006-1.742-.02-2.391s-.021-1.085-.021-1.308h6.771v2.886l-.04.083h.04v-.083c.237-.389.507-.757.806-1.1a6.09 6.09 0 0 1 1.221-1.073 6.843 6.843 0 0 1 1.722-.819 7.524 7.524 0 0 1 2.333-.325 8.99 8.99 0 0 1 3.083.513 6.468 6.468 0 0 1 2.456 1.563 7.328 7.328 0 0 1 1.625 2.649c.417 1.215.616 2.493.589 3.777v10.841h-6.73v-9.864a7.391 7.391 0 0 0-.186-1.709 3.558 3.558 0 0 0-.6-1.313 2.727 2.727 0 0 0-1.062-.844 3.77 3.77 0 0 0-1.576-.3 3.408 3.408 0 0 0-2.261.709 4.093 4.093 0 0 0-1.22 1.534c-.082.22-.136.45-.159.683-.026.265-.039.53-.038.795v10.309L10.881 28z"/></svg>