<svg xmlns="http://www.w3.org/2000/svg" width="28" height="28" viewBox="0 0 28 28"><g transform="translate(-370.584 -557.239)" fill="#006834"><path d="M384.586 559.764c3.738 0 4.179.013 5.655.079a7.759 7.759 0 0 1 2.6.483 4.637 4.637 0 0 1 2.656 2.657 7.688 7.688 0 0 1 .483 2.6c.069 1.476.082 1.92.082 5.658s-.013 4.182-.082 5.658a7.664 7.664 0 0 1-.483 2.6 4.323 4.323 0 0 1-1.045 1.611 4.371 4.371 0 0 1-1.611 1.049 7.781 7.781 0 0 1-2.6.48c-1.476.069-1.917.082-5.655.082s-4.182-.013-5.658-.082a7.8 7.8 0 0 1-2.6-.48 4.4 4.4 0 0 1-1.611-1.049 4.323 4.323 0 0 1-1.045-1.611 7.751 7.751 0 0 1-.483-2.6c-.066-1.476-.082-1.92-.082-5.658s.016-4.182.082-5.658a7.775 7.775 0 0 1 .483-2.6 4.637 4.637 0 0 1 2.656-2.657 7.778 7.778 0 0 1 2.6-.483c1.476-.066 1.92-.079 5.658-.079m0-2.525c-3.8 0-4.28.016-5.773.086a10.335 10.335 0 0 0-3.4.651 7.155 7.155 0 0 0-4.093 4.093 10.168 10.168 0 0 0-.651 3.4c-.069 1.492-.085 1.969-.085 5.773s.016 4.277.085 5.773a10.147 10.147 0 0 0 .651 3.4 7.149 7.149 0 0 0 4.093 4.1 10.339 10.339 0 0 0 3.4.651c1.492.066 1.969.082 5.773.082s4.277-.017 5.77-.082a10.32 10.32 0 0 0 3.4-.651 7.167 7.167 0 0 0 4.1-4.1 10.316 10.316 0 0 0 .651-3.4c.066-1.5.082-1.973.082-5.773s-.016-4.28-.082-5.773a10.338 10.338 0 0 0-.651-3.4 7.173 7.173 0 0 0-4.1-4.093 10.317 10.317 0 0 0-3.4-.651c-1.493-.069-1.969-.086-5.77-.086z"/><path d="M384.585 564.537a6.7 6.7 0 1 0 6.7 6.7 6.7 6.7 0 0 0-6.7-6.7zm0 11.053a4.351 4.351 0 1 1 4.349-4.349 4.351 4.351 0 0 1-4.349 4.349z"/><circle cx="1.8" cy="1.8" r="1.8" transform="translate(390.185 562.04)"/></g></svg>