<svg xmlns="http://www.w3.org/2000/svg" width="28" height="28" viewBox="0 0 28 28"><g transform="translate(-370.584 -557.239)" fill="#EFBA30"><path d="M384.586 559.764c3.738 0 4.18.013 5.655.079a7.75 7.75 0 0 1 2.6.483 4.634 4.634 0 0 1 2.656 2.657c.31.832.474 1.712.483 2.6.068 1.476.082 1.92.082 5.658s-.014 4.182-.082 5.658a7.696 7.696 0 0 1-.483 2.6 4.34 4.34 0 0 1-1.045 1.611 4.37 4.37 0 0 1-1.611 1.049 7.771 7.771 0 0 1-2.6.48c-1.476.068-1.917.082-5.655.082-3.738 0-4.182-.014-5.658-.082a7.851 7.851 0 0 1-2.6-.48 4.403 4.403 0 0 1-1.611-1.049 4.327 4.327 0 0 1-1.045-1.611 7.745 7.745 0 0 1-.483-2.6c-.066-1.477-.082-1.92-.082-5.658s.016-4.182.082-5.658a7.774 7.774 0 0 1 .483-2.6 4.637 4.637 0 0 1 2.656-2.657 7.774 7.774 0 0 1 2.6-.483c1.476-.066 1.92-.079 5.658-.079m0-2.525c-3.8 0-4.28.016-5.773.086a10.314 10.314 0 0 0-3.4.651 7.155 7.155 0 0 0-4.093 4.093 10.162 10.162 0 0 0-.651 3.4c-.069 1.492-.085 1.969-.085 5.773s.016 4.276.085 5.772c.021 1.163.241 2.313.651 3.4a7.147 7.147 0 0 0 4.093 4.1c1.088.407 2.238.627 3.4.651 1.492.066 1.969.082 5.773.082 3.805 0 4.277-.017 5.77-.082a10.283 10.283 0 0 0 3.4-.651 7.167 7.167 0 0 0 4.1-4.1c.407-1.088.627-2.238.651-3.4.065-1.5.082-1.973.082-5.772s-.017-4.28-.082-5.773a10.314 10.314 0 0 0-.651-3.4 7.172 7.172 0 0 0-4.1-4.093 10.314 10.314 0 0 0-3.4-.651c-1.493-.069-1.969-.086-5.77-.086z"/><path d="M384.585 564.537a6.7 6.7 0 1 0 0 13.4 6.7 6.7 0 0 0 0-13.4zm0 11.054a4.352 4.352 0 0 1-.004-8.703 4.351 4.351 0 0 1 4.353 4.349v.004a4.353 4.353 0 0 1-4.349 4.35z"/><circle cx="391.984" cy="563.84" r="1.8"/></g></svg>