<svg xmlns="http://www.w3.org/2000/svg" width="40.588" height="28" viewBox="0 0 40.588 28"><path d="M28.437 0v.069q0 .46-1.02 1.117h.047a7.288 7.288 0 0 1 2.287-.584c.371 0 .559.141.559.418v.166q-.145.365-1.07.73c-.924.243-1.662.465-2.212.658v.05h.462q3.721 0 6.684 3.957a10.345 10.345 0 0 1 1.41 3.625c.13.21.592.313 1.385.313h.147a7.989 7.989 0 0 0 3.28-.727v.047a3.856 3.856 0 0 1-2.259 2.118 5.759 5.759 0 0 1-1.994.459c0 .13.633.29 1.9.487l1.239.075h.315l.949-.075.047.025v.05a6.506 6.506 0 0 1-4.859 1.773v.047a14.359 14.359 0 0 1-3.307 6.222 14.569 14.569 0 0 1-2.381 2.312 21.586 21.586 0 0 1-3.6 2.284A22.451 22.451 0 0 1 16.676 28h-.949a20.059 20.059 0 0 1-10.984-3.4 21.7 21.7 0 0 1-3.379-2.942 10.844 10.844 0 0 1-1.361-1.723 10.783 10.783 0 0 0 7.411 2.84 10.563 10.563 0 0 0 7.22-2.868q.241-.34.365-.34v-.028l-.268.022h-.363a2.484 2.484 0 0 1-1.994-.973 1.446 1.446 0 0 1-.265-.777c0-.633.484-1.189 1.457-1.673v-.028h-.583a4.493 4.493 0 0 1-4.228-2.528 3.286 3.286 0 0 1 2.016-1.02l.608-.072v-.028a6.263 6.263 0 0 1-3.523-1.966 4.54 4.54 0 0 1-.852-2.041 9.375 9.375 0 0 1 2.381-.34v-.028A7.055 7.055 0 0 1 7.054 6.22a4.758 4.758 0 0 1-1.023-2.652v-.509q1.85.61 5.567 2.188a40.483 40.483 0 0 1 5.832 2.987c.73.583 1.427 1.194 2.091 1.825h.025a33.312 33.312 0 0 1 2.893-6.172 13.667 13.667 0 0 1 2.4-2.848l1.02-.752.025.022v.047a2.063 2.063 0 0 1-.315.8v.022h.025A5.543 5.543 0 0 1 28.437 0z" fill="#006834"/></svg>