<svg xmlns="http://www.w3.org/2000/svg" width="40.588" height="28" viewBox="0 0 40.588 28"><path fill="#EFBA30" d="M28.437 0v.069c0 .307-.34.679-1.02 1.117h.047a7.279 7.279 0 0 1 2.287-.584c.371 0 .559.141.559.418v.166c-.096.243-.453.487-1.069.73a29.66 29.66 0 0 0-2.212.658v.05h.462c2.48 0 4.708 1.319 6.684 3.957a10.328 10.328 0 0 1 1.41 3.625c.13.21.592.313 1.386.313h.146a7.98 7.98 0 0 0 3.279-.727v.047a3.852 3.852 0 0 1-2.258 2.118 5.775 5.775 0 0 1-1.994.459c0 .13.633.29 1.899.487l1.239.075h.314l.949-.075.047.025v.05a6.505 6.505 0 0 1-4.859 1.773v.047a14.356 14.356 0 0 1-3.307 6.222 14.596 14.596 0 0 1-2.381 2.313 21.485 21.485 0 0 1-3.6 2.284 22.475 22.475 0 0 1-9.771 2.384h-.949a20.056 20.056 0 0 1-10.984-3.4 21.756 21.756 0 0 1-3.379-2.941 10.825 10.825 0 0 1-1.361-1.723 10.79 10.79 0 0 0 7.411 2.84 10.56 10.56 0 0 0 7.22-2.868c.161-.228.283-.341.365-.341v-.027l-.268.021h-.363a2.481 2.481 0 0 1-1.994-.973 1.45 1.45 0 0 1-.265-.777c0-.633.484-1.188 1.457-1.672v-.029h-.583a4.492 4.492 0 0 1-4.228-2.527 3.29 3.29 0 0 1 2.016-1.02l.608-.072v-.028a6.263 6.263 0 0 1-3.523-1.966 4.537 4.537 0 0 1-.852-2.041 9.294 9.294 0 0 1 2.383-.342v-.028A7.068 7.068 0 0 1 7.054 6.22a4.752 4.752 0 0 1-1.023-2.652v-.509c1.233.407 3.089 1.136 5.567 2.188a40.42 40.42 0 0 1 5.832 2.987c.73.583 1.427 1.194 2.091 1.825h.025a33.377 33.377 0 0 1 2.893-6.172 13.7 13.7 0 0 1 2.4-2.848l1.02-.752.025.022v.047a2.047 2.047 0 0 1-.314.8v.021h.025A5.538 5.538 0 0 1 28.437 0z"/></svg>