<svg xmlns="http://www.w3.org/2000/svg" width="31.486" height="28" viewBox="0 0 31.486 28"><path d="M0 3.244a3.234 3.234 0 0 1 .264-1.307 2.836 2.836 0 0 1 .77-1.023A3.766 3.766 0 0 1 2.243.245 4.852 4.852 0 0 1 3.837.001a3.352 3.352 0 0 1 1.319.244 3.035 3.035 0 0 1 1 .678 2.973 2.973 0 0 1 .647 1.023 4.057 4.057 0 0 1 .26 1.3 3.151 3.151 0 0 1-.947 2.322 3.55 3.55 0 0 1-2.595.945h-.034A3.455 3.455 0 0 1 .93 5.568 3.181 3.181 0 0 1 0 3.244zM.414 28V9.092h6.73V28zm10.467 0q.02-2.421.031-4.606t.009-4.189V12.79q0-1.417-.02-2.391t-.02-1.308h6.771v2.886l-.04.083h.04v-.083a8.106 8.106 0 0 1 .806-1.1 6.069 6.069 0 0 1 1.22-1.073 6.865 6.865 0 0 1 1.722-.819 7.508 7.508 0 0 1 2.333-.325 9 9 0 0 1 3.083.513 6.47 6.47 0 0 1 2.456 1.563 7.321 7.321 0 0 1 1.625 2.649 10.913 10.913 0 0 1 .589 3.777v10.841h-6.73v-9.865a7.439 7.439 0 0 0-.186-1.708 3.57 3.57 0 0 0-.6-1.314 2.719 2.719 0 0 0-1.061-.844 3.756 3.756 0 0 0-1.576-.3 3.41 3.41 0 0 0-2.261.71 4.085 4.085 0 0 0-1.22 1.534 2.744 2.744 0 0 0-.159.683 7.981 7.981 0 0 0-.038.795v10.308z" fill="#006834"/></svg>