<svg xmlns="http://www.w3.org/2000/svg" width="73.771" height="73.771" viewBox="0 0 73.771 73.771"><path data-name="calendar004 - E144" d="M68.5 6.465H52.99V1.1a.564.564 0 0 0-.6-.6.564.564 0 0 0-.6.6v5.368H21.973V1.1a.564.564 0 0 0-.6-.6.564.564 0 0 0-.6.6v5.368H5.272A4.786 4.786 0 0 0 .5 11.237V68.5a4.786 4.786 0 0 0 4.772 4.772H68.5a4.786 4.786 0 0 0 4.771-4.772V11.237A4.786 4.786 0 0 0 68.5 6.465zM5.273 7.658H20.78v5.368a.564.564 0 0 0 .6.6.564.564 0 0 0 .6-.6V7.658H51.8v5.368a.564.564 0 0 0 .6.6.564.564 0 0 0 .6-.6V7.658h15.5a3.589 3.589 0 0 1 3.579 3.579v11.751H1.693V11.237a3.589 3.589 0 0 1 3.579-3.579zM68.5 72.078H5.272A3.589 3.589 0 0 1 1.693 68.5V24.18h70.385V68.5a3.589 3.589 0 0 1-3.578 3.578zM25.552 34.977a1.758 1.758 0 0 0-1.789-1.789 1.758 1.758 0 0 0-1.789 1.789 1.758 1.758 0 0 0 1.789 1.789 1.758 1.758 0 0 0 1.789-1.789zm13.123 0a1.758 1.758 0 0 0-1.789-1.789 1.758 1.758 0 0 0-1.786 1.789 1.758 1.758 0 0 0 1.789 1.789 1.758 1.758 0 0 0 1.786-1.789zm13.125.059a1.758 1.758 0 0 0-1.789-1.789 1.758 1.758 0 0 0-1.789 1.789 1.758 1.758 0 0 0 1.789 1.789 1.758 1.758 0 0 0 1.789-1.789zm13.123 0a1.758 1.758 0 0 0-1.789-1.789 1.758 1.758 0 0 0-1.789 1.789 1.758 1.758 0 0 0 1.789 1.789 1.758 1.758 0 0 0 1.786-1.789zM25.552 48.1a1.758 1.758 0 0 0-1.789-1.79 1.758 1.758 0 0 0-1.79 1.79 1.758 1.758 0 0 0 1.79 1.789 1.758 1.758 0 0 0 1.789-1.789zm-13.122.059a1.758 1.758 0 0 0-1.79-1.79 1.758 1.758 0 0 0-1.789 1.79 1.758 1.758 0 0 0 1.789 1.789 1.758 1.758 0 0 0 1.79-1.789zm26.245 0a1.758 1.758 0 0 0-1.789-1.789 1.758 1.758 0 0 0-1.786 1.789 1.758 1.758 0 0 0 1.789 1.789 1.758 1.758 0 0 0 1.786-1.789zm13.125 0a1.758 1.758 0 0 0-1.789-1.789 1.758 1.758 0 0 0-1.792 1.789 1.758 1.758 0 0 0 1.789 1.789 1.758 1.758 0 0 0 1.792-1.789zm13.123 0a1.758 1.758 0 0 0-1.789-1.789 1.758 1.758 0 0 0-1.793 1.789 1.758 1.758 0 0 0 1.789 1.789 1.758 1.758 0 0 0 1.79-1.789zM25.552 61.222a1.758 1.758 0 0 0-1.789-1.789 1.79 1.79 0 0 0 0 3.579 1.758 1.758 0 0 0 1.789-1.79zm-13.123.06a1.758 1.758 0 0 0-1.789-1.79 1.758 1.758 0 0 0-1.789 1.789 1.758 1.758 0 0 0 1.789 1.79 1.758 1.758 0 0 0 1.79-1.789zm26.245 0a1.789 1.789 0 1 0-1.789 1.789 1.758 1.758 0 0 0 1.79-1.789z" stroke="#000"/></svg>