<svg xmlns="http://www.w3.org/2000/svg" width="92.5" height="83.902" viewBox="0 0 92.5 83.902"><g stroke="#fff" stroke-width="2.5"><path data-name="Path 255" d="M88.545 1.25H3.955A2.707 2.707 0 0 0 1.25 3.955v62.433a2.706 2.706 0 0 0 2.705 2.705h52.02v10.806a2.708 2.708 0 0 0 4.336 2.159l5.71-4.312 5.712 4.312a2.707 2.707 0 0 0 4.336-2.159V69.093h12.476a2.706 2.706 0 0 0 2.705-2.705V3.955a2.707 2.707 0 0 0-2.705-2.705zM70.658 74.466l-3.008-2.27a2.706 2.706 0 0 0-3.261 0l-3 2.269V63.877a17.541 17.541 0 0 0 4.635.624 17.867 17.867 0 0 0 4.637-.624zm-4.637-15.378a12.081 12.081 0 1 1 12.083-12.08 12.1 12.1 0 0 1-12.083 12.08zm19.818 4.592h-9.77v-2.36a17.492 17.492 0 1 0-20.094 0v2.363H6.661V6.661h79.178z"/><path data-name="Path 256" d="M73.317 48.095l-1.883-1.088 1.883-1.087a2.705 2.705 0 0 0-2.705-4.686l-1.885 1.088v-2.684a2.705 2.705 0 1 0-5.411 0v2.684l-1.883-1.088a2.705 2.705 0 0 0-2.705 4.686l1.883 1.087-1.883 1.088a2.705 2.705 0 0 0 2.705 4.686l1.883-1.088v2.684a2.705 2.705 0 1 0 5.411 0v-2.684l1.885 1.088a2.705 2.705 0 0 0 2.705-4.686z"/><path data-name="Path 257" d="M32.277 25.413h27.945a2.705 2.705 0 0 0 0-5.411H32.277a2.705 2.705 0 0 0 0 5.411z"/><path data-name="Path 258" d="M39.125 16.103h14.249a2.705 2.705 0 0 0 0-5.411H39.125a2.705 2.705 0 0 0 0 5.411z"/><path data-name="Path 259" d="M16.102 45.135h18.926a2.705 2.705 0 1 0 0-5.411H16.102a2.705 2.705 0 1 0 0 5.411z"/><path data-name="Path 260" d="M16.102 55.198h18.926a2.705 2.705 0 1 0 0-5.411H16.102a2.705 2.705 0 1 0 0 5.411z"/></g></svg>