<svg xmlns="http://www.w3.org/2000/svg" width="69.487" height="88.943" viewBox="0 0 69.487 88.943"><path data-name="Path 276" d="M57.327 78.52a1.737 1.737 0 1 0 1.737 1.737 1.738 1.738 0 0 0-1.737-1.737zm0 0"/><path data-name="Path 277" d="M26.058 39.26a5.22 5.22 0 0 0 4.913-3.474h3.775v23.626a5.212 5.212 0 1 0 10.423 0V35.785h3.773a5.211 5.211 0 0 0 10.125-1.737V16.677a5.211 5.211 0 0 0-10.125-1.737H30.973a5.213 5.213 0 0 0-10.127 1.737v17.371a5.217 5.217 0 0 0 5.212 5.212zm22.583-6.949H31.269v-13.9h17.372zm-6.949 27.1a1.737 1.737 0 1 1-3.474 0V35.785h3.474zm12.16-44.472a1.738 1.738 0 0 1 1.737 1.737v17.372a1.737 1.737 0 1 1-3.474 0V16.677a1.739 1.739 0 0 1 1.737-1.738zM24.32 16.676a1.737 1.737 0 1 1 3.474 0v17.372a1.737 1.737 0 0 1-3.474 0zm0 0"/><path data-name="Path 278" d="M36.481 25.362h6.949a1.737 1.737 0 1 0 0-3.474h-6.949a1.737 1.737 0 1 0 0 3.474zm0 0"/><path data-name="Path 279" d="M0 80.258a8.7 8.7 0 0 0 8.686 8.686H67.75a1.737 1.737 0 0 0 .964-3.183 6.615 6.615 0 0 1 0-11.007 1.741 1.741 0 0 0 .77-1.424V1.737A1.737 1.737 0 0 0 67.75 0H8.686A8.7 8.7 0 0 0 0 8.686zm63.742 5.212H8.686a5.213 5.213 0 0 1 0-10.425h55.056a10.114 10.114 0 0 0 0 10.425zm2.271-13.9H13.9V3.474h52.113zM8.686 3.474h1.737v68.1H8.686a8.617 8.617 0 0 0-5.212 1.736V8.686a5.217 5.217 0 0 1 5.212-5.212zm0 0"/><path data-name="Path 280" d="M50.133 78.52H12.16a1.737 1.737 0 1 0 0 3.474h37.973a1.737 1.737 0 1 0 0-3.474zm0 0"/></svg>