<svg xmlns="http://www.w3.org/2000/svg" width="90.293" height="86.417" viewBox="0 0 90.293 86.417"><g stroke="#fff" stroke-width=".293" data-name="Group 1657"><path data-name="Path 228" d="M89.473 77.309a21.1 21.1 0 0 0-20.544-15.391 22.047 22.047 0 0 0-2.262.116l4.958-9.821h.008a1.794 1.794 0 0 0 .77.173 1.764 1.764 0 0 0 1.581-.956 1.679 1.679 0 0 0-.808-2.277l-6.62-3.129 1.9-3.757a1.654 1.654 0 0 0 .084-1.3 1.722 1.722 0 0 0-.891-.977l-.421-.2 12.1-23.97c.293 0 .588-.018.884-.046a8.188 8.188 0 0 0 6.524-4.381l.214-.424a1.787 1.787 0 0 0 1.9-.926 1.679 1.679 0 0 0-.808-2.277L72.462.397a1.785 1.785 0 0 0-2.351.783 1.666 1.666 0 0 0 .415 2.023l-.213.422a7.709 7.709 0 0 0 .437 7.676q.237.361.5.7L59.146 35.972l-.422-.2a1.785 1.785 0 0 0-2.351.782l-1.9 3.758-6.62-3.132a1.785 1.785 0 0 0-2.351.783 1.679 1.679 0 0 0 .808 2.277h.005l-6.824 13.537a25.944 25.944 0 0 0-10.145 3.578 25.167 25.167 0 0 0-8.663 8.837c-.5-.039-1-.059-1.5-.059a19.114 19.114 0 0 0-17.384 10.9 17.807 17.807 0 0 0-1.653 7.534 1.676 1.676 0 0 0 .515 1.2 1.787 1.787 0 0 0 1.243.5h86.36a1.738 1.738 0 0 0 1.747-1.514 19.9 19.9 0 0 0-.538-7.447zm-5.9-67.41a4.65 4.65 0 0 1-3.7 2.487 6.575 6.575 0 0 1-6.148-2.908 4.375 4.375 0 0 1-.254-4.354l.186-.368 10.1 4.779zm-9.61 4.483a10.14 10.14 0 0 0 1.754.831L64.066 38.297l-1.756-.831zm-15.2 25.2l5.758 2.724-1.125 2.229-5.757-2.724zm9.7 11.14l-5.907 11.7a25.97 25.97 0 0 0-19.038-8.868l5.966-11.816zm18.16 32.145H3.759a14.463 14.463 0 0 1 .829-3.427h13.665a1.702 1.702 0 1 0 0-3.405H6.405a15.762 15.762 0 0 1 15.023-6.334 1.773 1.773 0 0 0 1.824-.925 22 22 0 0 1 19.717-11.822 22.345 22.345 0 0 1 17.834 8.816 1.791 1.791 0 0 0 2.028.6q.583-.207 1.176-.373l.04-.011a18.234 18.234 0 0 1 4.883-.66 17.708 17.708 0 0 1 16.416 10.707H41.04a1.702 1.702 0 1 0 0 3.405h45.316a16.7 16.7 0 0 1 .275 3.021l-.006.406zm0 0"/><path data-name="Path 229" d="M57.152 70.695a1.921 1.921 0 0 1-1.558-.791 16.586 16.586 0 0 0-13.376-6.832 1.925 1.925 0 1 1 0-3.849 20.445 20.445 0 0 1 16.491 8.419 1.925 1.925 0 0 1-1.555 3.056zm0 0"/><path data-name="Path 230" d="M35.121 78.548a1.858 1.858 0 0 1-.375-.039 1.936 1.936 0 0 1-.36-.11 1.906 1.906 0 0 1-.333-.177 1.867 1.867 0 0 1-.292-.238 1.915 1.915 0 0 1-.526-1.738 2.006 2.006 0 0 1 .11-.36 1.891 1.891 0 0 1 .177-.331 1.83 1.83 0 0 1 .238-.293 2.015 2.015 0 0 1 .292-.241 1.905 1.905 0 0 1 .333-.177 2.054 2.054 0 0 1 .36-.11 1.947 1.947 0 0 1 1.736.527 1.83 1.83 0 0 1 .238.293 1.892 1.892 0 0 1 .177.331 2.011 2.011 0 0 1 .111.36 1.883 1.883 0 0 1 .037.377 1.925 1.925 0 0 1-1.925 1.925zm0 0"/></g></svg>