<svg xmlns="http://www.w3.org/2000/svg" width="56.497" height="60.112" viewBox="0 0 56.497 60.112"><g data-name="Group 171" stroke="#fff" stroke-width="1.5"><path data-name="Path 3227" d="M45.149 23.214a4.129 4.129 0 1 0 4.129-4.129 4.134 4.134 0 0 0-4.129 4.129zm5.4 0a1.274 1.274 0 1 1-1.274-1.273 1.275 1.275 0 0 1 1.277 1.273z"/><path data-name="Path 3228" d="M45.517 12.192a1.423 1.423 0 0 0 1.009-.418l.192-.191a1.428 1.428 0 0 0-2.019-2.02l-.192.192a1.427 1.427 0 0 0 1.009 2.437z"/><path data-name="Path 3229" d="M49.663 3.381a1.428 1.428 0 0 0 2.019-2.019l-.192-.192a1.428 1.428 0 1 0-2.019 2.019z"/><path data-name="Path 3230" d="M51.703 35.728h-1.19v-4.219a1.428 1.428 0 0 0-1.426-1.428H7.411a1.428 1.428 0 0 0-1.428 1.428v4.219H4.795A4.049 4.049 0 0 0 .75 39.772v1.712a4.049 4.049 0 0 0 4.045 4.044h1.192v7.7a6.144 6.144 0 0 0 6.138 6.138h32.251a6.144 6.144 0 0 0 6.138-6.138v-7.7h1.19a4.048 4.048 0 0 0 4.044-4.044v-1.712a4.048 4.048 0 0 0-4.045-4.044zM5.987 42.673h-1.19a1.19 1.19 0 0 1-1.189-1.189v-1.712a1.19 1.19 0 0 1 1.189-1.189h1.19zm41.671-9.74v20.289a3.286 3.286 0 0 1-3.282 3.282H12.121a3.286 3.286 0 0 1-3.282-3.282V32.933zm5.234 8.548a1.19 1.19 0 0 1-1.189 1.189h-1.19v-4.09h1.19a1.19 1.19 0 0 1 1.189 1.189z"/><path data-name="Path 3231" d="M8.408 26.221a1.449 1.449 0 0 0 .329-.038l40.556-9.589a1.427 1.427 0 1 0-.657-2.778l-15.509 3.666-.274-1.157a4.049 4.049 0 0 0-4.867-3.005l-1.666.394a4.049 4.049 0 0 0-3.005 4.867l.274 1.157L8.08 23.405a1.428 1.428 0 0 0 .327 2.817zm18.57-9.73l1.666-.394a1.192 1.192 0 0 1 1.432.884l.274 1.158-3.981.941-.274-1.157a1.192 1.192 0 0 1 .883-1.432z"/><path data-name="Path 3232" d="M33.683 27.26a1.428 1.428 0 1 0 2.855 0 2.046 2.046 0 0 1 4.091 0 1.428 1.428 0 1 0 2.855 0 4.9 4.9 0 0 0-9.8 0z"/></g></svg>