<svg xmlns="http://www.w3.org/2000/svg" width="78.021" height="90" viewBox="0 0 78.021 90"><g data-name="Group 1655"><path data-name="Path 235" d="M22.418 62.749c14.457 0 22.419-8.492 22.419-23.913C44.837 24.4 24.4 1.443 23.531.474a1.541 1.541 0 0 0-2.224 0C20.436 1.443 0 24.4 0 38.835c0 15.421 7.963 23.914 22.418 23.914zm0-59c4.279 5.022 19.43 23.607 19.43 35.084 0 9.545-3.372 20.924-19.43 20.924S2.989 48.381 2.989 38.835c0-11.477 15.15-30.062 19.429-35.083zm0 0"/><path data-name="Path 236" d="M64.57 65.922c8.549 0 13.451-5.7 13.451-15.654 0-9.343-11.854-22.185-12.357-22.728a1.54 1.54 0 0 0-2.188 0c-.5.543-12.357 13.385-12.357 22.728 0 9.95 4.902 15.654 13.451 15.654zm0-35.108c2.883 3.354 10.462 12.806 10.462 19.453 0 8.4-3.52 12.665-10.462 12.665s-10.462-4.26-10.462-12.664c0-6.648 7.579-16.1 10.462-19.454zm0 0"/><path data-name="Path 237" d="M42.397 60.613c-.381.432-9.341 10.666-9.341 17.43 0 7.6 3.814 11.957 10.462 11.957S53.98 85.642 53.98 78.043c0-6.764-8.96-17-9.341-17.43a1.544 1.544 0 0 0-2.242 0zm1.121 26.4c-4.957 0-7.473-3.018-7.473-8.967 0-4.063 4.676-10.676 7.473-14.121 2.8 3.438 7.473 10.053 7.473 14.121 0 5.947-2.516 8.96-7.473 8.96zm0 0"/><path data-name="Path 238" d="M19.28 56.942a1.456 1.456 0 0 0 .15.007 1.495 1.495 0 0 0 .15-2.982 10.949 10.949 0 0 1-7.986-4.077c-3.975-5.183-2.659-13.538-2.647-13.621A1.494 1.494 0 0 0 6 35.779c-.066.395-1.549 9.694 3.212 15.917a13.812 13.812 0 0 0 10.068 5.246zm0 0"/><path data-name="Path 239" d="M63.075 59.975a10.405 10.405 0 0 0 7.31-3.149 8.933 8.933 0 0 0 1.636-7.56 1.494 1.494 0 0 0-2.947.493 6.131 6.131 0 0 1-.96 5.122 7.44 7.44 0 0 1-5.04 2.1 1.495 1.495 0 1 0 0 2.989zm0 0"/><path data-name="Path 240" d="M42.676 81.19a1.714 1.714 0 0 1-.825-2.478 1.5 1.5 0 0 0-2.675-1.336 4.7 4.7 0 0 0 2.164 6.5 1.5 1.5 0 1 0 1.336-2.675zm0 0"/></g></svg>