<svg xmlns="http://www.w3.org/2000/svg" width="50.497" height="50.501" viewBox="0 0 50.497 50.501"><g data-name="Group 170" stroke="#fff" stroke-width=".5"><path data-name="Path 3219" d="M49.414 31.919H1.083a.833.833 0 0 0-.833.833 17.518 17.518 0 0 0 17.5 17.5h15a17.519 17.519 0 0 0 17.5-17.5.832.832 0 0 0-.836-.833zM32.748 48.584h-15a15.852 15.852 0 0 1-15.81-15h46.62a15.852 15.852 0 0 1-15.81 15z"/><path data-name="Path 3220" d="M12.994 28.827l1.178 1.178 4.754-4.756h13.822a3.331 3.331 0 0 0 2.885-5h1.125a3.449 3.449 0 0 0 3.488-3.156 3.316 3.316 0 0 0-.456-1.865 3.333 3.333 0 0 0 2.96-3.309c0-.061 0-.122-.007-.214a3.461 3.461 0 0 0-2.332-2.942l.943-.943a4.462 4.462 0 0 0 .369-5.971 4.38 4.38 0 0 0-6.159-.6c-.105.088-.208.18-.311.283l-1.025 1.044a3.476 3.476 0 0 0-2.97-2.32 3.33 3.33 0 0 0-3.508 3.15v1.459a3.313 3.313 0 0 0-1.663-.448c-.06 0-.122 0-.214.006a3.454 3.454 0 0 0-3.125 3.472v1.133a3.322 3.322 0 0 0-1.663-.445c-.06 0-.121 0-.213.007a3.453 3.453 0 0 0-3.123 3.471v12.012zm6.421-16.778a1.777 1.777 0 0 1 1.578-1.8h.091a1.668 1.668 0 0 1 1.664 1.664v.006a.833.833 0 0 0 .832.833.834.834 0 0 0 .833-.833V7.881a1.778 1.778 0 0 1 1.578-1.8h.09a1.669 1.669 0 0 1 1.667 1.668.833.833 0 0 0 .833.833.833.833 0 0 0 .833-.833V3.495a1.652 1.652 0 0 1 1.72-1.578 1.785 1.785 0 0 1 1.61 1.813v.692a.833.833 0 0 0 1.426.584l2.261-2.294c.062-.061.125-.118.191-.172a2.709 2.709 0 0 1 3.8.357 2.8 2.8 0 0 1-.244 3.744l-2.186 2.191a.833.833 0 0 0 .589 1.422h.736a1.776 1.776 0 0 1 1.765 1.578v.092a1.664 1.664 0 0 1-1.667 1.663h-2.5a.833.833 0 0 0 0 1.667h.092a1.663 1.663 0 0 1 1.578 1.72 1.776 1.776 0 0 1-1.812 1.61h-4.025a.833.833 0 1 0 0 1.666 1.667 1.667 0 1 1 0 3.333H20.591l1.667-1.667h5.484v-1.667h-3.813l3.329-3.333h4.651v-1.667h-2.98l3.329-3.325h3.826v-1.666H33.92l3.584-3.584-1.179-1.178-3.579 3.579v-2.15h-1.667v3.817l-3.333 3.333v-2.983H26.08v4.65l-3.333 3.333v-3.826H21.08v5.492l-1.665 1.665z"/><path data-name="Path 3221" d="M5.148 9.279l.7.548v.427a4.166 4.166 0 1 0 8.332 0v-.427l.737-.576a3.836 3.836 0 0 0 .881-5.146 3.844 3.844 0 0 0-5.325-1.063 3.488 3.488 0 0 0-.171.12l-.3.228-.288-.207a3.833 3.833 0 1 0-4.567 6.1zm.393-4.8a2.168 2.168 0 0 1 3.064-.055.991.991 0 0 0 .093.075l.833.6a.833.833 0 0 0 .991-.013l.879-.661a2.155 2.155 0 0 1 2.5 3.507l-1.067.833a.834.834 0 0 0-.32.656v.833a2.5 2.5 0 1 1-5 0v-.833a.831.831 0 0 0-.32-.656l-1.067-.833a.84.84 0 0 0-.1-.067 2.166 2.166 0 0 1-.488-3.386z"/><path data-name="Rectangle 105" d="M18.581 1.084h1.667v1.667h-1.667z"/><path data-name="Rectangle 106" d="M23.58 27.749h1.667v1.667H23.58z"/><path data-name="Path 3222" d="M48.58 8.587a3.337 3.337 0 0 0-3.333-3.331v1.667a1.667 1.667 0 1 1 0 3.333v1.666a3.336 3.336 0 0 0 3.333-3.335z"/><path data-name="Rectangle 107" d="M1.915 12.758h1.667v1.667H1.915z"/><path data-name="Rectangle 108" d="M.25 9.425h1.667v1.667H.25z"/><path data-name="Path 3223" d="M32.748 26.918a3.337 3.337 0 0 0-3.333 3.333h1.667a1.667 1.667 0 1 1 3.333 0h1.667a3.337 3.337 0 0 0-3.334-3.333z"/><path data-name="Path 3224" d="M5.25 29.417h3.333a.833.833 0 0 0 .833-.833v-2.5h.833a3.333 3.333 0 1 0 0-6.666h-.1a3.334 3.334 0 0 0-6.456 0h-.11a3.333 3.333 0 1 0 0 6.666h.833v2.5a.833.833 0 0 0 .834.833zm2.5-1.667H6.083v-1.665h1.666zm-4.167-3.333a1.667 1.667 0 1 1 0-3.333h.833a.833.833 0 0 0 .833-.833 1.667 1.667 0 1 1 3.333 0 .834.834 0 0 0 .833.833h.833a1.667 1.667 0 0 1 0 3.333H3.583z"/><path data-name="Path 3225" d="M44.414 26.919a2.5 2.5 0 1 0-2.5-2.5 2.5 2.5 0 0 0 2.5 2.5zm0-3.332a.833.833 0 1 1-.833.833.834.834 0 0 1 .833-.834z"/><path data-name="Path 3226" d="M38.581 24.419a5.833 5.833 0 1 0 5.833-5.833 5.84 5.84 0 0 0-5.833 5.833zm5.833-4.165a4.166 4.166 0 1 1-4.166 4.166 4.171 4.171 0 0 1 4.166-4.166z"/></g></svg>