<svg xmlns="http://www.w3.org/2000/svg" width="86.236" height="92" viewBox="0 0 86.236 92"><g data-name="Group 1656"><g stroke="#fff" stroke-width="2" transform="translate(1 1)" data-name="Group 278"><path data-name="Path 231" d="M20.71 12.455A19.474 19.474 0 0 0 1.359 31.938c-.042.778-.981 19.2 6.772 32.086 4.567 7.585 10.518 8.719 13.66 8.719 5.963 0 11.442-3.917 12.743-9.109 1.93-7.7-1.469-11.853-3.717-14.6-1.243-1.52-1.943-2.421-1.851-3.272.1-.957 1.149-2.825 5.536-6.291a17.019 17.019 0 0 0 5.513-8.5c1.14-5.561.427-9.964-2.119-13.085-3.928-4.814-11.248-5.431-17.186-5.431zm14.692 17.572a12.428 12.428 0 0 1-3.817 5.747c-4.806 3.8-6.989 6.631-7.3 9.478s1.391 4.931 2.889 6.761c2.134 2.608 4.148 5.074 2.794 10.474-.78 3.111-4.371 5.547-8.177 5.547-3.708 0-7.127-2.286-9.627-6.439-7-11.631-6.115-29.221-6.1-29.527A14.8 14.8 0 0 1 20.71 17.163c4.9 0 10.863.42 13.539 3.7 1.608 1.971 1.996 5.055 1.153 9.164z"/><circle data-name="Ellipse 61" cx="5.296" cy="5.296" r="5.296" transform="translate(28.137)"/><circle data-name="Ellipse 62" cx="4.315" cy="4.315" r="4.315" transform="translate(17.231 .781)"/><circle data-name="Ellipse 63" cx="3.334" cy="3.334" r="3.334" transform="translate(9.461 4.389)"/><circle data-name="Ellipse 64" cx="2.669" cy="2.669" r="2.669" transform="translate(3.173 9.213)"/><circle data-name="Ellipse 65" cx="2.007" cy="2.007" r="2.007" transform="translate(0 15.332)"/><path data-name="Path 232" d="M49.732 56.729c4.389 3.466 5.431 5.333 5.535 6.29.092.851-.607 1.752-1.851 3.272-2.249 2.747-5.648 6.9-3.717 14.6 1.3 5.192 6.782 9.108 12.745 9.108 3.142 0 9.093-1.131 13.658-8.721 7.754-12.886 6.817-31.305 6.776-31.952a19.507 19.507 0 0 0-19.354-19.615c-5.939 0-13.258.618-17.187 5.432-2.546 3.121-3.257 7.522-2.118 13.086a17.048 17.048 0 0 0 5.513 8.5zm.255-18.606c2.674-3.279 8.639-3.7 13.54-3.7a14.832 14.832 0 0 1 14.65 15.04c.009.175.907 17.736-6.107 29.392-2.5 4.155-5.916 6.441-9.627 6.441-3.808 0-7.4-2.437-8.178-5.55-1.355-5.4.66-7.864 2.792-10.472 1.5-1.833 3.2-3.908 2.89-6.762s-2.492-5.681-7.3-9.476a12.459 12.459 0 0 1-3.819-5.748c-.838-4.111-.45-7.194 1.159-9.165z"/><circle data-name="Ellipse 66" cx="5.296" cy="5.296" r="5.296" transform="translate(45.508 17.261)"/><path data-name="Path 233" d="M62.691 18.042a4.315 4.315 0 1 1-4.315 4.315 4.315 4.315 0 0 1 4.315-4.315z"/><circle data-name="Ellipse 67" cx="3.334" cy="3.334" r="3.334" transform="translate(68.106 21.65)"/><circle data-name="Ellipse 68" cx="2.669" cy="2.669" r="2.669" transform="translate(75.725 26.474)"/><path data-name="Path 234" d="M82.228 32.593a2.007 2.007 0 1 1-2.007 2.007 2.007 2.007 0 0 1 2.007-2.007z"/></g></g></svg>