<svg xmlns="http://www.w3.org/2000/svg" width="72.727" height="51" viewBox="0 0 72.727 51"><g data-name="Group 168"><g data-name="Group 167"><g data-name="Group 162"><g data-name="Group 161"><path data-name="Path 3216" d="M49.521 28.668l-6.651-2.956a1.3 1.3 0 0 1-.773-1.19v-1.827a9.692 9.692 0 0 0 3.67-7.594V12.53a2.372 2.372 0 0 0 1.223-2.073v-.249A9.719 9.719 0 0 0 37.282.5h-2.447a9.719 9.719 0 0 0-9.708 9.708v2.264a2.4 2.4 0 0 0 .913 1.923 2.243 2.243 0 0 0 .31.2v.505a9.692 9.692 0 0 0 3.67 7.593v1.827a1.3 1.3 0 0 1-.773 1.19l-6.651 2.956a6.043 6.043 0 0 0-3.586 5.518v15.17a1.145 1.145 0 1 0 2.289 0v-15.17a3.773 3.773 0 0 1 .023-.394l3.065 3.065a2.51 2.51 0 0 1 .74 1.786v10.713a1.145 1.145 0 0 0 2.289 0V38.642a4.782 4.782 0 0 0-1.41-3.4l-3.654-3.654a3.738 3.738 0 0 1 1.173-.824l6.539-2.906 4.849 4.849V49.36a1.145 1.145 0 1 0 2.289 0V32.702l4.849-4.849 6.539 2.906a3.73 3.73 0 0 1 1.173.825l-3.654 3.654a4.782 4.782 0 0 0-1.41 3.4v10.713a1.145 1.145 0 0 0 2.289 0V38.642a2.509 2.509 0 0 1 .74-1.786l3.065-3.065a3.763 3.763 0 0 1 .023.393v15.17a1.145 1.145 0 0 0 2.289 0v-15.17a6.044 6.044 0 0 0-3.584-5.516zM36.059 30.61l-4.255-4.255a3.586 3.586 0 0 0 .506-1.833v-.466a9.7 9.7 0 0 0 7.5 0v.466a3.586 3.586 0 0 0 .506 1.833zm0-8.09a7.427 7.427 0 0 1-7.419-7.419v-.515a6.773 6.773 0 0 0 2.079-1.349 1.145 1.145 0 0 0-1.553-1.682 4.109 4.109 0 0 1-1.7 1.015.172.172 0 0 1-.03.006.232.232 0 0 1-.019-.1v-2.264a7.427 7.427 0 0 1 7.419-7.419h2.447a7.427 7.427 0 0 1 7.419 7.419v.25a.074.074 0 0 1-.052.075c-6.854 1.354-10.291-1.2-11.451-2.358a1.145 1.145 0 0 0-1.619 1.619c3.554 3.554 8.741 3.619 11.9 3.239v2.068a7.427 7.427 0 0 1-7.421 7.411z" stroke="#fff"/></g></g><g data-name="Group 164"><g data-name="Group 163"><path data-name="Path 3217" d="M21.14 22.442v-2.447a8.483 8.483 0 0 0-3.89-7.127 4.814 4.814 0 1 0-9.41-1.437 4.783 4.783 0 0 0 .22 1.436 8.482 8.482 0 0 0-3.89 7.127v2.447a8.48 8.48 0 0 0 3.67 6.981v2.517a1.3 1.3 0 0 1-.72 1.165l-3.959 1.979A4.789 4.789 0 0 0 .5 39.39v9.965a1.145 1.145 0 1 0 2.289 0v-9.47l1.865 1.865a2.509 2.509 0 0 1 .74 1.786v5.82a1.145 1.145 0 1 0 2.289 0v-5.825a4.784 4.784 0 0 0-1.41-3.4l-2.6-2.6-.039-.035a2.552 2.552 0 0 1 .547-.37l3.959-1.979a3.647 3.647 0 0 0 .567-.354l2.8 2.8v11.76a1.145 1.145 0 1 0 2.289 0v-11.76l2.8-2.8a3.624 3.624 0 0 0 .567.354l1.092.546a1.145 1.145 0 1 0 1.024-2.047l-1.092-.546a1.3 1.3 0 0 1-.72-1.165v-2.517a8.48 8.48 0 0 0 3.673-6.976zM12.655 8.906a2.528 2.528 0 0 1 2.485 2.976 8.483 8.483 0 0 0-4.967 0 2.509 2.509 0 0 1 2.482-2.975zm0 4.894a6.2 6.2 0 0 1 6.2 6.2v.415a7.185 7.185 0 0 1-7.726-2.325 1.144 1.144 0 0 0-1.725-.122 7.49 7.49 0 0 1-2.936 1.874 6.2 6.2 0 0 1 6.187-6.042zm0 21.7l-2.645-2.645a3.632 3.632 0 0 0 .119-.919v-1.4a8.5 8.5 0 0 0 5.051 0v1.4a3.62 3.62 0 0 0 .12.919zm0-6.866a6.2 6.2 0 0 1-6.2-6.2v-.237a9.176 9.176 0 0 0 3.678-1.832 10.337 10.337 0 0 0 2.123 1.545 9.106 9.106 0 0 0 4.374 1.129 9.588 9.588 0 0 0 2.207-.264 6.2 6.2 0 0 1-6.182 5.862z" stroke="#fff"/></g></g><g data-name="Group 166"><g data-name="Group 165"><path data-name="Path 3218" d="M69.566 32.637l-6.406-3.2a1.3 1.3 0 0 1-.72-1.165V26.65a7.244 7.244 0 0 0 2.447-5.429v-1.3h.079a1.145 1.145 0 0 0 1.145-1.145v-2.447a7.27 7.27 0 0 0-7.261-7.261h-2.447a7.27 7.27 0 0 0-7.261 7.261v2.448a1.145 1.145 0 0 0 1.145 1.145h.079v1.3a7.244 7.244 0 0 0 2.447 5.429v1.622a1.3 1.3 0 0 1-.72 1.165 1.145 1.145 0 1 0 1.024 2.048 3.646 3.646 0 0 0 .567-.354l2.8 2.8v15.429a1.145 1.145 0 1 0 2.289 0v-15.43l2.8-2.8a3.647 3.647 0 0 0 .567.354l6.2 3.1-1.88 1.88a4.783 4.783 0 0 0-1.41 3.4v9.49a1.145 1.145 0 1 0 2.289 0v-9.49a2.509 2.509 0 0 1 .74-1.786l1.781-1.781a2.556 2.556 0 0 1 .084.645v12.412a1.145 1.145 0 1 0 2.289 0V36.943a4.788 4.788 0 0 0-2.667-4.306zM51.43 17.392v-1.067a4.978 4.978 0 0 1 4.972-4.972h2.447a4.978 4.978 0 0 1 4.972 4.972v1.271a17.5 17.5 0 0 1-8.007-2.224 1.144 1.144 0 0 0-1.444.143 7.5 7.5 0 0 1-2.94 1.877zm6.2 14.441l-2.645-2.645a3.62 3.62 0 0 0 .12-.919v-.244a7.256 7.256 0 0 0 5.051 0v.244a3.606 3.606 0 0 0 .12.919zm0-5.643a4.978 4.978 0 0 1-4.972-4.972v-1.841a9.681 9.681 0 0 0 2.686-1.639 20.329 20.329 0 0 0 7.258 2.063v1.421a4.978 4.978 0 0 1-4.976 4.969z" stroke="#fff"/></g></g></g></g></svg>