<svg xmlns="http://www.w3.org/2000/svg" width="94" height="69.007" viewBox="0 0 94 69.007"><g data-name="Group 1654"><g data-name="Group 186"><path data-name="Path 3237" d="M82.171 31.042c-3.419-1.709-9.83-1.729-10.1-1.729a1.472 1.472 0 1 0 0 2.944c1.654 0 6.457.255 8.784 1.419a1.472 1.472 0 0 0 1.316-2.634z"/><path data-name="Path 3238" d="M89.8 50.668l-5.687-1.625a.577.577 0 0 1-.417-.553v-1.9a10.387 10.387 0 0 0 1.316-1.079 10.13 10.13 0 0 0 3.1-7.328v-2.62l.55-1.1a8.779 8.779 0 0 0 .922-3.908v-7.1a1.377 1.377 0 0 0-1.377-1.377H74.956a8.748 8.748 0 0 0-8.738 8.738v.082a7.306 7.306 0 0 0 .767 3.249l.706 1.411v2.249a10.744 10.744 0 0 0 4.417 8.687v1.989c0 .307 0 .434-1.137.759l-2.775.793-8.027-2.919a1.374 1.374 0 0 0-.375-1.054l-2.565-2.695v-4.524c.271-.223.538-.452.8-.7a16.16 16.16 0 0 0 5.091-11.748v-3.603a15.916 15.916 0 0 0 1.472-6.693V1.377A1.377 1.377 0 0 0 63.215 0H42.6a13.17 13.17 0 0 0-13.155 13.155V16.1a15.918 15.918 0 0 0 1.472 6.693v3.108a16.824 16.824 0 0 0 5.889 12.841v4.63l-2.565 2.695a1.377 1.377 0 0 0-.376 1.054l-8.472 3.08a7.245 7.245 0 0 0-1.7.892l-1.33-.665c3.96-1.724 5.215-4.148 5.275-4.268a1.379 1.379 0 0 0 0-1.232c-.993-1.986-1.113-5.624-1.21-8.549a74.68 74.68 0 0 0-.121-2.712c-.469-6.6-5.49-11.585-11.68-11.585S3.417 27.065 2.948 33.669a74.638 74.638 0 0 0-.121 2.713c-.1 2.924-.217 6.562-1.21 8.547a1.379 1.379 0 0 0 0 1.232c.06.121 1.313 2.54 5.281 4.266L3.2 52.274A5.765 5.765 0 0 0 0 57.456v10.178a1.377 1.377 0 1 0 2.754 0V57.456a3.024 3.024 0 0 1 1.68-2.719l4.6-2.3 1.6 1.521a5.79 5.79 0 0 0 7.982 0l1.6-1.521 1.5.75a7.246 7.246 0 0 0-1.108 3.844v10.6a1.377 1.377 0 0 0 2.754 0V57.034a4.526 4.526 0 0 1 2.97-4.24l8.933-3.249 3.718 5.578a2.841 2.841 0 0 0 2.09 1.255c.1.009.19.014.284.014a2.838 2.838 0 0 0 2.012-.835l2.268-2.268v14.345a1.377 1.377 0 0 0 2.754 0V53.287l2.268 2.268a2.836 2.836 0 0 0 2.012.835c.094 0 .189 0 .283-.014a2.841 2.841 0 0 0 2.09-1.255l3.719-5.578 8.932 3.248a4.526 4.526 0 0 1 2.97 4.241v10.6a1.377 1.377 0 1 0 2.754 0V57.034a7.281 7.281 0 0 0-2.036-5.038l.34-.1a7.533 7.533 0 0 0 1.281-.462l3.516 3.516v12.684a1.377 1.377 0 1 0 2.754 0v-12.68l3.491-3.491a3.285 3.285 0 0 0 .586.232l5.687 1.625a3.053 3.053 0 0 1 2.2 2.923v11.391a1.377 1.377 0 1 0 2.754 0V56.239a5.819 5.819 0 0 0-4.192-5.571zM8.834 48.234a9.9 9.9 0 0 1-4.419-2.837 15.208 15.208 0 0 0 .785-3.3 10.259 10.259 0 0 0 3.634 4.484zm7.888 3.727a3.038 3.038 0 0 1-4.188 0l-1.281-1.216a2.848 2.848 0 0 0 .335-1.345v-1.466a10.236 10.236 0 0 0 6.08 0v1.467A2.848 2.848 0 0 0 18 50.745zm-2.094-6.321a7.465 7.465 0 0 1-7.457-7.457 1.377 1.377 0 0 0-1.377-1.377 1.409 1.409 0 0 0-.226.02c0-.118.008-.237.012-.354.031-.947.06-1.841.115-2.608a10.225 10.225 0 0 1 2.784-6.42 8.556 8.556 0 0 1 12.3 0 10.222 10.222 0 0 1 2.784 6.42c.054.767.084 1.661.115 2.607l.009.246a12.377 12.377 0 0 0-6.8-4.97 17.288 17.288 0 0 0-5.237-.83 1.381 1.381 0 0 0-.953.421l-2.484 2.576a1.377 1.377 0 1 0 1.982 1.912l2.067-2.144c1.78.087 7.507.753 9.735 5.658a7.439 7.439 0 0 1-7.369 6.301zm5.793 2.6v-1.642a10.2 10.2 0 0 0 3.636-4.489 15.141 15.141 0 0 0 .784 3.289 9.937 9.937 0 0 1-4.42 2.842zm13.25-22.338v-3.417a1.372 1.372 0 0 0-.137-.6A13.209 13.209 0 0 1 32.2 16.1v-2.945a10.413 10.413 0 0 1 10.4-10.4h19.236V16.1a13.207 13.207 0 0 1-1.336 5.786 1.372 1.372 0 0 0-.137.6v3.92a13.219 13.219 0 0 1-4.221 9.739 13.645 13.645 0 0 1-1.058.9l-.023.017a13.238 13.238 0 0 1-8.935 2.665 13.638 13.638 0 0 1-12.454-13.825zm7.753 27.706a.086.086 0 0 1-.077.027.089.089 0 0 1-.07-.041L37 47.169l1.378-1.448 6.5 4.44zm5.593-5.314l-7.457-5.1v-2.57a15.5 15.5 0 0 0 6.387 1.844q.545.035 1.083.035a15.944 15.944 0 0 0 7.443-1.824v2.515zm5.739 5.3a.088.088 0 0 1-.07.042.086.086 0 0 1-.077-.027l-3.446-3.446 6.5-4.44 1.379 1.448zm25.144-1.16l-3.125-3.125a3.776 3.776 0 0 0 .085-.817v-.581a9.65 9.65 0 0 0 2.726.482h.317a10.219 10.219 0 0 0 3.038-.459v.555a3.306 3.306 0 0 0 .1.8zm5.193-8.9a7.4 7.4 0 0 1-5.423 2.1 7.708 7.708 0 0 1-7.227-7.823v-2.574a1.378 1.378 0 0 0-.145-.616l-.851-1.7a4.536 4.536 0 0 1-.476-2.018v-.082a5.991 5.991 0 0 1 5.985-5.987h11.873v5.719a6.015 6.015 0 0 1-.629 2.681l-.695 1.39a1.372 1.372 0 0 0-.146.616v2.944a7.4 7.4 0 0 1-2.266 5.35z"/><path data-name="Path 3239" d="M86.233 56.62a1.472 1.472 0 0 0-1.472 1.472v9.442a1.472 1.472 0 1 0 2.944 0v-9.442a1.472 1.472 0 0 0-1.472-1.472z"/><path data-name="Path 3240" d="M7.767 58.566a1.472 1.472 0 0 0-1.472 1.472v7.5a1.472 1.472 0 1 0 2.943 0v-7.5a1.472 1.472 0 0 0-1.471-1.472z"/><path data-name="Path 3241" d="M37.472 15.992a.1.1 0 0 1 .077-.1 46.5 46.5 0 0 1 9.562-.469c4.589.306 7.914 1.457 9.881 3.424a1.472 1.472 0 1 0 2.081-2.081c-5.567-5.567-17.214-4.5-21.964-3.786a3.021 3.021 0 0 0-2.582 3.01v3.393a1.472 1.472 0 0 0 2.944 0z"/><path data-name="Path 3242" d="M30.856 59.768a1.472 1.472 0 0 0-1.472 1.472v6.294a1.472 1.472 0 1 0 2.944 0v-6.295a1.472 1.472 0 0 0-1.472-1.471z"/><path data-name="Path 3243" d="M63.179 59.768a1.472 1.472 0 0 0-1.472 1.472v6.294a1.472 1.472 0 1 0 2.943 0v-6.295a1.472 1.472 0 0 0-1.471-1.471z"/></g></g></svg>