<svg xmlns="http://www.w3.org/2000/svg" width="90" height="88.498" viewBox="0 0 90 88.498"><g data-name="Group 1653"><g data-name="Group 194"><g data-name="Group 193"><g data-name="Group 188"><g data-name="Group 187"><ellipse data-name="Ellipse 20" cx="1.738" cy="1.738" rx="1.738" ry="1.738" transform="translate(12.37 67.635)"/></g></g><g data-name="Group 190"><g data-name="Group 189"><path data-name="Path 3244" d="M81.17 15.415H70.942a9.515 9.515 0 0 0-6.083 2.191V12.38A12.393 12.393 0 0 0 52.48 0h-11.6a1.738 1.738 0 0 0-1.738 1.738v4.774a12.394 12.394 0 0 0 12.386 12.38h9.858v17.62q-.688-.044-1.383-.045a21.457 21.457 0 0 0-12.63 4.073 1.738 1.738 0 1 0 2.033 2.819 18.095 18.095 0 0 1 13.339-3.2 1.787 1.787 0 0 0 .229.035 18.167 18.167 0 0 1 12.9 9.114 1.739 1.739 0 0 0 3.041-1.686 21.647 21.647 0 0 0-14.057-10.6v-5.62h8.49a9.57 9.57 0 0 0 9.56-9.559v-4.69a1.738 1.738 0 0 0-1.738-1.738zm-19.787 0h-9.855a8.913 8.913 0 0 1-8.9-8.9V3.476h9.859a8.913 8.913 0 0 1 8.9 8.9v3.035zm18.045 6.428a6.09 6.09 0 0 1-6.08 6.087h-8.489v-2.956a6.09 6.09 0 0 1 6.083-6.083h8.486z"/></g></g><g data-name="Group 192"><g data-name="Group 191"><path data-name="Path 3245" d="M89.414 57.397a6.928 6.928 0 0 0-9.084-3.48l-.026.012-11.486 5.237a1.73 1.73 0 0 0-.861 2.306 1.766 1.766 0 0 0 2.332.851l11.472-5.231a3.391 3.391 0 0 1 4.439 1.709 3.325 3.325 0 0 1-1.723 4.4l-23.5 10.262a13.76 13.76 0 0 1-11.6-.259l-8.6-4.227a17.3 17.3 0 0 0-14.582-.327l-.169.074-6.43-14.4 8.927-3.9a17.946 17.946 0 0 1 13.362-.422l17.3 6.283a3.092 3.092 0 0 1 1.875 3.892 3.132 3.132 0 0 1-3.95 1.923l-13.385-4.475a1.762 1.762 0 0 0-2.228 1.09 1.733 1.733 0 0 0 1.1 2.2l13.381 4.479a6.668 6.668 0 0 0 8.4-4.091 6.579 6.579 0 0 0-3.99-8.282L43.09 46.734a21.482 21.482 0 0 0-15.994.5l-8.984 3.923A4.409 4.409 0 0 0 16 49.466a4.471 4.471 0 0 0-3.4.076l-11.541 5A1.739 1.739 0 0 0 0 56.134v30.625a1.734 1.734 0 0 0 .837 1.48 1.773 1.773 0 0 0 1.713.071l22.405-11.193a4.394 4.394 0 0 0 2.307-2.417 4.321 4.321 0 0 0 .136-2.782l.21-.091a13.763 13.763 0 0 1 11.6.259l8.6 4.227a17.3 17.3 0 0 0 14.582.327l23.5-10.262a6.791 6.791 0 0 0 3.524-8.981zm-65.43 16.048a.927.927 0 0 1-.5.513l-.082.038-19.886 9.938v-7.609l5.2-2.525a1.73 1.73 0 0 0 .8-2.327 1.767 1.767 0 0 0-2.352-.794l-3.65 1.772v-15.18l10.493-4.547a.945.945 0 0 1 .718-.016.929.929 0 0 1 .519.49l8.268 18.518.453 1.015a.912.912 0 0 1 .019.714z"/></g></g></g></g></g></svg>