<svg xmlns="http://www.w3.org/2000/svg" width="97.074" height="72.383" viewBox="0 0 97.074 72.383"><path data-name="Path 3246" d="M94.192 29.806h-5.745a22.694 22.694 0 0 0 1-6.691 22.609 22.609 0 0 0-38.6-15.987l-1.8 1.8-1.8-1.8A22.61 22.61 0 0 0 9.936 30.595H2.882a2.382 2.382 0 1 0 0 4.763h8.734a2.369 2.369 0 0 0 .6-.078 22.521 22.521 0 0 0 3.07 3.817l32.086 32.087a2.385 2.385 0 0 0 3.37 0l32.087-32.087a22.77 22.77 0 0 0 3.57-4.627 2.377 2.377 0 0 0 .65.092h7.146a2.382 2.382 0 1 0 0-4.763zM18.652 10.49a17.851 17.851 0 0 1 25.239 0l3.478 3.48a2.381 2.381 0 0 0 3.369 0l3.48-3.48A17.847 17.847 0 0 1 83 30.672H63.453l-3.547-7.8a1.588 1.588 0 0 0-2.942.126L49.713 43.43 40.9 19.017a1.588 1.588 0 0 0-1.419-1.048 1.546 1.546 0 0 0-1.512.911l-5.924 12.586H15.5a17.876 17.876 0 0 1 3.152-20.976zm30.4 55.642l-30.4-30.4a17.818 17.818 0 0 1-1.061-1.165h15.8c.615 0 .841-.278 1.1-.833L39.212 23.7l9.022 24.982a1.59 1.59 0 0 0 1.494 1.048 1.586 1.586 0 0 0 1.491-1.057l7.42-20.908 2.342 5.153a2.065 2.065 0 0 0 1.78.856h18.387a17.835 17.835 0 0 1-1.692 1.958z" stroke="#fff"/></svg>