<svg xmlns="http://www.w3.org/2000/svg" width="89.944" height="89.944" viewBox="0 0 89.944 89.944"><g stroke="#000"><path data-name="Path 281" d="M57.883 86.575V76.316a4.261 4.261 0 0 1 .371-1.748L63 63.884a7.151 7.151 0 0 0 .619-2.915v-3.086h18.652V7.673H72.229V.5H56.448a12.926 12.926 0 0 0-11.476 7A12.926 12.926 0 0 0 33.5.5H17.715v7.173H7.673v50.21h18.649V60.7a7.2 7.2 0 0 0 .9 3.483L32.954 74.5a4.313 4.313 0 0 1 .546 2.084v9.99H.5v2.869h88.944v-2.868zM79.4 10.542v44.472H49.276v1.435a4.309 4.309 0 0 1-4.3 4.3 4.136 4.136 0 0 1-.531-.067 18.589 18.589 0 0 0-4.645-8.54h32.429v-41.6zM20.584 3.369H33.5a10.054 10.054 0 0 1 10.037 10.042v11.477h2.869V13.411A10.054 10.054 0 0 1 56.448 3.369H69.36v45.907H46.406V27.757h-2.869v21.519H37.8V42.1a8.616 8.616 0 0 0-8.608-8.6 2.872 2.872 0 0 0-2.869 2.869v12.907h-5.739zM10.542 55.014V10.542h7.173v41.6h8.607v2.869zm19.19 7.777a4.322 4.322 0 0 1-.541-2.09V36.364A5.744 5.744 0 0 1 34.93 42.1v9.2l2.522 2.522A15.776 15.776 0 0 1 42.1 65.056h2.869c0-.483-.034-.961-.07-1.439h.07A7.184 7.184 0 0 0 52 57.883h8.752v3.086a4.261 4.261 0 0 1-.371 1.748L55.632 73.4a7.166 7.166 0 0 0-.492 1.7H36.195a7.192 7.192 0 0 0-.733-2zm6.632 20.915h12.912v-2.87H36.364v-2.869h18.65v2.869h-2.869v2.869h2.869v2.869h-18.65zm0 0"/><path data-name="Path 282" d="M56.448 37.799h2.869v2.869h-2.869zm0 0"/><path data-name="Path 283" d="M62.187 37.799h2.869v2.869h-2.869zm0 0"/><path data-name="Path 284" d="M50.71 37.799h2.869v2.869H50.71zm0 0"/><path data-name="Path 285" d="M49.276 43.537h17.215v2.869H49.276zm0 0"/><path data-name="Path 286" d="M49.276 32.061h17.215v2.869H49.276zm0 0"/><path data-name="Path 287" d="M49.276 22.019h17.215v2.869H49.276zm0 0"/><path data-name="Path 288" d="M49.276 16.28h17.215v2.869H49.276zm0 0"/><path data-name="Path 289" d="M49.276 10.542h17.215v2.869H49.276zm0 0"/><path data-name="Path 290" d="M30.626 16.28h2.869v2.869h-2.869zm0 0"/><path data-name="Path 291" d="M36.364 16.28h2.869v2.869h-2.869zm0 0"/><path data-name="Path 292" d="M24.888 16.28h2.869v2.869h-2.869zm0 0"/><path data-name="Path 293" d="M23.453 10.542h17.215v2.869H23.453zm0 0"/><path data-name="Path 294" d="M23.453 22.019h17.215v2.869H23.453zm0 0"/><path data-name="Path 295" d="M23.453 27.757h17.215v2.869H23.453zm0 0"/></g></svg>