<svg xmlns="http://www.w3.org/2000/svg" width="88.486" height="89.944" viewBox="0 0 88.486 89.944"><g data-name="Group 1599"><g data-name="Group 1598"><path data-name="Path 296" d="M81.863 31.238a10.2 10.2 0 1 0-12.551 1.145 7.288 7.288 0 0 0-3.2 6.028v10.207h-5.83v-7.295a10.216 10.216 0 0 0-9-10.128 10.207 10.207 0 1 0-14.085 0 10.216 10.216 0 0 0-9 10.128v7.29h-5.826V38.411a7.288 7.288 0 0 0-3.2-6.028A10.212 10.212 0 1 0 6.62 31.238 7.283 7.283 0 0 0 .5 38.411v21.871a7.3 7.3 0 0 0 5.832 7.141v22.019h2.916v-21.87h13.123v20.413a1.459 1.459 0 0 0 1.458 1.458h8.749a1.459 1.459 0 0 0 1.458-1.458v-23.33h8.749v21.868h-5.833v2.916h14.581v-2.916H45.7V64.656h8.749v23.33a1.459 1.459 0 0 0 1.458 1.458h8.749a1.459 1.459 0 0 0 1.458-1.458V67.572h13.123v21.871h2.916v-22.02a7.3 7.3 0 0 0 5.832-7.143V38.411a7.283 7.283 0 0 0-6.122-7.173zM67.572 23.83a7.29 7.29 0 1 1 7.29 7.29 7.3 7.3 0 0 1-7.29-7.29zm-30.62 0a7.29 7.29 0 1 1 7.29 7.29 7.3 7.3 0 0 1-7.29-7.29zm9.561 10.207l-2.27 6.054-2.27-6.054zM31.12 41.323a7.3 7.3 0 0 1 7.29-7.29h.448l4.02 10.718a1.458 1.458 0 0 0 2.731 0l4.019-10.718h.448a7.3 7.3 0 0 1 7.29 7.29v7.29h-5.833a1.459 1.459 0 0 0-1.458 1.458v5.832H38.41v-5.832a1.459 1.459 0 0 0-1.458-1.458H31.12zM6.332 23.83a7.29 7.29 0 1 1 7.29 7.29 7.3 7.3 0 0 1-7.29-7.29zM31.12 86.523h-5.832V66.114a1.459 1.459 0 0 0-1.458-1.458H7.79a4.38 4.38 0 0 1-4.374-4.374V38.411a4.38 4.38 0 0 1 4.374-4.374h7.29a4.38 4.38 0 0 1 4.374 4.374v11.665a1.459 1.459 0 0 0 1.458 1.458h14.582v4.374H15.081V42.785h-2.916v14.581a1.459 1.459 0 0 0 1.458 1.458h13.123a4.38 4.38 0 0 1 4.374 4.374zm23.493-24.788h-20.74a7.281 7.281 0 0 0-1.3-2.916H55.91a7.281 7.281 0 0 0-1.297 2.921zm30.457-1.458a4.38 4.38 0 0 1-4.374 4.374h-16.04a1.459 1.459 0 0 0-1.458 1.458v20.414h-5.832v-23.33a4.38 4.38 0 0 1 4.374-4.37h13.123a1.459 1.459 0 0 0 1.458-1.458v-14.58H73.4v13.123H52.991v-4.375h14.581a1.459 1.459 0 0 0 1.458-1.458V38.411a4.38 4.38 0 0 1 4.37-4.375h7.3a4.38 4.38 0 0 1 4.374 4.374z" stroke="#000"/></g></g><g data-name="Group 1601"><g data-name="Group 1600"><path data-name="Rectangle 315" stroke="#000" d="M42.785 48.617h2.916v2.916h-2.916z"/></g></g><g data-name="Group 1603"><g data-name="Group 1602"><path data-name="Path 297" d="M36.952.5H16.539a1.459 1.459 0 0 0-1.458 1.458v7.29a1.459 1.459 0 0 0 1.458 1.458h5.832v2.916a1.458 1.458 0 0 0 2.333 1.166l5.443-4.083h6.8a1.459 1.459 0 0 0 1.458-1.458V1.958A1.459 1.459 0 0 0 36.952.5zm-1.458 7.29h-5.832a1.457 1.457 0 0 0-.875.292l-3.5 2.625V9.249A1.459 1.459 0 0 0 23.83 7.79h-5.833V3.416h17.5z" stroke="#000"/></g></g><g data-name="Group 1605"><g data-name="Group 1604"><path data-name="Rectangle 316" stroke="#000" d="M51.533 4.874h2.916V7.79h-2.916z"/></g></g><g data-name="Group 1607"><g data-name="Group 1606"><path data-name="Rectangle 317" stroke="#000" d="M57.366 4.874h2.916V7.79h-2.916z"/></g></g><g data-name="Group 1609"><g data-name="Group 1608"><path data-name="Rectangle 318" stroke="#000" d="M63.198 4.874h2.916V7.79h-2.916z"/></g></g></svg>