<svg xmlns="http://www.w3.org/2000/svg" width="54.5" height="54.5" viewBox="0 0 54.5 54.5"><g data-name="Group 172" stroke="#fff" stroke-width=".5"><path data-name="Path 3233" d="M7.45 47.95a2.7 2.7 0 1 0-2.7 2.7 2.7 2.7 0 0 0 2.7-2.7zm-3.6 0a.9.9 0 1 1 .9.9.9.9 0 0 1-.9-.9z"/><path data-name="Path 3234" d="M54.25 29.05a.9.9 0 0 0-.9-.9h-2.7a23.427 23.427 0 0 0-22.5-23.381V2.05h1.8V.25h-5.4v1.8h1.8v2.719A23.427 23.427 0 0 0 3.85 28.15h-2.7a.9.9 0 0 0-.9.9 6.307 6.307 0 0 0 6.3 6.3h6.518l-2.394 1.993a.891.891 0 0 0-.551-.193H.25v1.8h8.973v13.5H.25v1.8h9.873a.9.9 0 0 0 .9-.9v-2.7H32.48a6.314 6.314 0 0 0 4.01-1.448l10.911-9.015a3.537 3.537 0 0 0 .98-4.669 3.574 3.574 0 0 0-.114-.176 6.309 6.309 0 0 0 5.983-6.292zm-27-22.5a21.625 21.625 0 0 1 21.6 21.6H5.65a21.625 21.625 0 0 1 21.6-21.6zm4.5 30.048a3.118 3.118 0 0 0-.305-1.248h10.64l-8.823 6.3H22.75a.9.9 0 0 1 0-1.8h5.85a3.153 3.153 0 0 0 3.15-3.15v-.102zm14.557 2.162l-10.963 9.055a4.517 4.517 0 0 1-2.865 1.035H11.05v-9.478l4.078-3.395a2.706 2.706 0 0 1 1.7-.628h11.747A1.374 1.374 0 0 1 29.95 36.7a1.352 1.352 0 0 1-1.35 1.35h-5.85a2.7 2.7 0 0 0 0 5.4h10.8a.911.911 0 0 0 .525-.167l10.3-7.354a1.708 1.708 0 0 1 2.39.4c.027.037.051.075.075.113a1.748 1.748 0 0 1-.533 2.318zm1.643-5.21H6.55a4.507 4.507 0 0 1-4.409-3.6h50.218a4.506 4.506 0 0 1-4.409 3.6z"/><path data-name="Path 3235" d="M10.713 17.267l1.5.994a18.409 18.409 0 0 1 1.578-2.05l-1.345-1.2a20.071 20.071 0 0 0-1.733 2.256z"/><path data-name="Path 3236" d="M13.698 13.725l1.233 1.312a17.932 17.932 0 0 1 12.317-4.886v-1.8a19.729 19.729 0 0 0-13.55 5.374z"/></g></svg>