<svg xmlns="http://www.w3.org/2000/svg" width="91.417" height="90.427" viewBox="0 0 91.417 90.427"><g stroke="#000" stroke-width=".5"><path data-name="Path 261" d="M35.767 16.771a16.341 16.341 0 0 1 2.369.836 10.061 10.061 0 0 1-.4 2.756c-.512 2.271-1.042 4.62.706 5.649s3.453-.6 5.113-2.16a12.757 12.757 0 0 1 2.105-1.767 9.724 9.724 0 0 1 2.21 1.767c1.3 1.224 2.63 2.48 3.981 2.48a2.205 2.205 0 0 0 1.132-.319c1.748-1.029 1.219-3.378.707-5.649a15.81 15.81 0 0 1-.475-2.636 9.815 9.815 0 0 1 2.44-.955c2.144-.662 4.572-1.41 4.572-3.519s-2.428-2.857-4.57-3.516a16.415 16.415 0 0 1-2.368-.836 10.054 10.054 0 0 1 .4-2.756c.512-2.271 1.042-4.62-.705-5.649s-3.453.6-5.113 2.159a12.7 12.7 0 0 1-2.106 1.768 9.724 9.724 0 0 1-2.209-1.768C41.897 1.092 40.18-.523 38.442.495s-1.22 3.378-.707 5.649a15.8 15.8 0 0 1 .475 2.636 9.833 9.833 0 0 1-2.44.955c-2.144.662-4.573 1.411-4.573 3.52s2.428 2.855 4.57 3.516zm.857-4.261c1.818-.56 3.389-1.045 4.061-2.227.687-1.208.3-2.941-.119-4.778-.126-.562-.308-1.363-.389-1.98.454.366 1 .879 1.385 1.242 1.393 1.314 2.71 2.556 4.149 2.556s2.755-1.241 4.149-2.555c.385-.363.93-.877 1.386-1.242-.082.617-.262 1.418-.39 1.979-.413 1.835-.805 3.569-.119 4.778.673 1.183 2.243 1.666 4.061 2.227a20.044 20.044 0 0 1 2.123.745 19.884 19.884 0 0 1-2.123.744c-1.818.561-3.389 1.045-4.061 2.228-.686 1.208-.3 2.94.119 4.778.127.562.308 1.363.389 1.98-.454-.366-1-.879-1.385-1.242-1.393-1.314-2.709-2.556-4.149-2.556s-2.755 1.241-4.149 2.555c-.385.363-.93.877-1.386 1.242.083-.617.263-1.418.39-1.979.414-1.836.806-3.569.119-4.778-.672-1.183-2.242-1.666-4.061-2.228a19.892 19.892 0 0 1-2.124-.743 19.752 19.752 0 0 1 2.123-.747zm0 0"/><path data-name="Path 262" d="M88.71 59.85l2.389-6.852-1.37-.478a10.1 10.1 0 0 0-4.64-.473 10.14 10.14 0 0 0 3.332-8.109l-.417-7.246-1.449.083a10.112 10.112 0 0 0-4.022 1.089c.137-.3.261-.6.37-.918a10.084 10.084 0 0 0-.445-7.763l-3.157-6.534-1.306.631a10.143 10.143 0 0 0-3.358 2.622 9.14 9.14 0 0 0-3.1-5.919l-5.047-4.4-.956 1.05a9.158 9.158 0 0 0 .765 13.115l.133.116a10.1 10.1 0 0 0-4.117 1l-1.306.631 3.156 6.534a10.038 10.038 0 0 0 3.803 4.173l.166 2.893a10.048 10.048 0 0 0 2.2 5.721l-.816 2.339a10.053 10.053 0 0 0-.36 5.271l-2.266 2.541a10.039 10.039 0 0 0-2.41 5.116l-1.99.961c.016-.327.057-.652.057-.979v-1.451h-1.446a21.18 21.18 0 0 0-9.316 2.174 21.181 21.181 0 0 0-5.051-8.124l-1.026-1.022-1.026 1.026a21.178 21.178 0 0 0-5.051 8.125 21.174 21.174 0 0 0-9.315-2.171h-1.453v1.451c0 .4.047.8.068 1.193l-2.431-1.174a10.042 10.042 0 0 0-2.411-5.117l-1.929-2.164a10.038 10.038 0 0 0-.268-5.65l-.954-2.738a10.037 10.037 0 0 0 1.914-5.322l.166-2.893a10.03 10.03 0 0 0 3.806-4.184l3.156-6.535-1.306-.631a10.062 10.062 0 0 0-3.718-.979l.152-.133a9.139 9.139 0 0 0 .768-13.119l-.955-1.045-5.06 4.4a9.137 9.137 0 0 0-3.161 6.356 10.107 10.107 0 0 0-3.71-3.054l-1.306-.631-3.156 6.533a10.1 10.1 0 0 0-.446 7.764c.108.313.234.618.37.917a10.124 10.124 0 0 0-4.022-1.089l-1.449-.083-.417 7.246a10.143 10.143 0 0 0 3.267 8.053 10.119 10.119 0 0 0-4.146.527l-1.369.481 2.389 6.852a10.092 10.092 0 0 0 5.174 5.805c.3.147.612.27.925.385a10.094 10.094 0 0 0-3.628 2.074l-1.084.967 4.83 5.417a10.089 10.089 0 0 0 7 3.382q.3.018.6.018c.136 0 .27-.013.406-.019a10.094 10.094 0 0 0-2.557 3.31l-.631 1.306 6.534 3.156a10.1 10.1 0 0 0 7.544.508 21.172 21.172 0 0 0 10.14 2.568h2.952a8.677 8.677 0 0 0 9.608 0h2.948a21.165 21.165 0 0 0 10.024-2.5 9.7 9.7 0 0 0 7.226-.576l6.534-3.156-.631-1.306a10.14 10.14 0 0 0-2.558-3.31c.136.006.27.019.406.019q.3 0 .6-.018a10.094 10.094 0 0 0 7-3.382l4.83-5.416-1.084-.967a10.069 10.069 0 0 0-3.4-2 10.27 10.27 0 0 0 1.123-.46 10.091 10.091 0 0 0 5.172-5.809zm-1.356-4.929l-1.385 3.974a7.261 7.261 0 0 1-7.823 4.806l1.386-3.975a7.272 7.272 0 0 1 7.822-4.805zm-15.432.811a7.3 7.3 0 0 1 .342-1.614l1.386-3.974a7.268 7.268 0 0 1 3.141 8.625l-.94 2.7a10.093 10.093 0 0 0-3.041-4.942zm13.596-11.63a7.271 7.271 0 0 1-5.389 7.433l-.241-4.2a7.264 7.264 0 0 1 5.389-7.434zm-9.954-14.059a7.209 7.209 0 0 1 2.454-3.384l1.831 3.791a7.262 7.262 0 0 1-2.133 8.929l-1.832-3.791a7.2 7.2 0 0 1-.32-5.545zm-9.524-6.875a6.191 6.191 0 0 1 .8-3.43l2.787 2.433a6.259 6.259 0 0 1 2.166 4.389 6.193 6.193 0 0 1-.8 3.429l-2.785-2.432a6.261 6.261 0 0 1-2.168-4.389zm3.129 14.608l-1.45.084.021.364a7.266 7.266 0 0 1-.962-1.462l-1.831-3.789a7.273 7.273 0 0 1 8.321 3.878l.938 1.94a10.139 10.139 0 0 0-5.037-1.015zm1.865 7.161l-.241-4.2a7.259 7.259 0 0 1 6.2 6.768l.1 1.68a10.089 10.089 0 0 0-3.808-2.4l-1.37-.478-.343.982a7.262 7.262 0 0 1-.538-2.352zm-1.968 17.971l2.8-3.142a7.269 7.269 0 0 1-.4 9.171l-1.439 1.614a10.07 10.07 0 0 0-.982-5.049l-.627-1.3-.33.158a7.243 7.243 0 0 1 .978-1.452zm-5.925 7.06l3.789-1.831a7.268 7.268 0 0 1-3.876 8.321l-.077.038a21.491 21.491 0 0 0-2.6-1.1 21.32 21.32 0 0 0 1.658-4.75 7.147 7.147 0 0 1 1.106-.678zm-33.657 1.106a21.377 21.377 0 0 0 1.556 4.318 21.331 21.331 0 0 0-2.8 1.213l-.3-.147a7.271 7.271 0 0 1-3.879-8.321l3.789 1.831a7.319 7.319 0 0 1 1.634 1.106zm-6.906-6.872l-.632 1.3a10.092 10.092 0 0 0-.984 5.046l-1.439-1.614a7.261 7.261 0 0 1-.4-9.171l2.8 3.142a7.24 7.24 0 0 1 .981 1.449zm-3.313-8.639l-1.084.967a10.076 10.076 0 0 0-2.842 4.28l-.71-2.035a7.269 7.269 0 0 1 3.141-8.625l1.386 3.974a7.29 7.29 0 0 1 .353 1.714zm.242-9.248l-1.371.478a10.106 10.106 0 0 0-4.264 2.872l.124-2.163a7.261 7.261 0 0 1 6.2-6.768l-.241 4.2a7.24 7.24 0 0 1-.331 1.719zm6.538-13.337l-1.827 3.785a7.182 7.182 0 0 1-.964 1.462l.021-.366-1.45-.084a10.1 10.1 0 0 0-5.042 1.028l.943-1.951a7.2 7.2 0 0 1 2.309-2.727l.019.021.206-.18a7.288 7.288 0 0 1 5.785-.992zm-4.276-10.8l2.806-2.44a6.171 6.171 0 0 1 .806 3.433 6.259 6.259 0 0 1-2.174 4.39l-2.806 2.441a6.172 6.172 0 0 1-.805-3.433 6.252 6.252 0 0 1 2.173-4.395zm-10.624 8.273l1.832-3.791a7.264 7.264 0 0 1 2.133 8.931l-1.831 3.791a7.265 7.265 0 0 1-2.134-8.93zM5.469 44.102l.241-4.2a7.261 7.261 0 0 1 5.387 7.434l-.24 4.2a7.269 7.269 0 0 1-5.388-7.434zm-.018 14.789l-1.386-3.974a7.267 7.267 0 0 1 7.823 4.8l1.385 3.975a7.259 7.259 0 0 1-7.822-4.806zm10.644 16.091a7.2 7.2 0 0 1-5-2.417l-2.8-3.142a7.267 7.267 0 0 1 9.065 1.445l2.8 3.142a7.2 7.2 0 0 1-4.065.972zm5.443 8.056l-3.792-1.836a7.217 7.217 0 0 1 7.385-2.659 20.629 20.629 0 0 0-2.218 1.9l-1.026 1.025 1.026 1.026c.437.437.9.842 1.361 1.235a7.243 7.243 0 0 1-2.737-.691zm24.172 4.236a5.806 5.806 0 1 1 5.806-5.805 5.811 5.811 0 0 1-5.806 5.805zm7.53-1.451a8.708 8.708 0 1 0-15.059 0h-.225a18.237 18.237 0 0 1-11.875-4.353 18.423 18.423 0 0 1 7.44-3.788l1.9-.475-1.011-1.682a18.442 18.442 0 0 1-2.582-7.936 18.444 18.444 0 0 1 7.937 2.582l1.682 1.012.475-1.9a18.45 18.45 0 0 1 3.786-7.438 18.423 18.423 0 0 1 3.786 7.438l.475 1.9 1.682-1.012a18.45 18.45 0 0 1 7.936-2.582 18.438 18.438 0 0 1-2.582 7.936l-1.012 1.682 1.9.475a18.449 18.449 0 0 1 7.44 3.788 18.232 18.232 0 0 1-11.875 4.353zm16.213-2.785a7.249 7.249 0 0 1-2.242.634c.443-.376.881-.76 1.3-1.176l1.026-1.028-1.026-1.026a20.888 20.888 0 0 0-2.295-1.951 7.155 7.155 0 0 1 7.034 2.714zm10.446-10.472a7.272 7.272 0 0 1-9.065 1.446l2.8-3.142a7.27 7.27 0 0 1 9.065-1.445zm0 0"/></g></svg>